<?xml version="1.0" encoding="utf-8"?>
<!-- Generator: Adobe Illustrator 27.5.0, SVG Export Plug-In . SVG Version: 6.00 Build 0)  -->
<svg version="1.1" xmlns="http://www.w3.org/2000/svg" xmlns:xlink="http://www.w3.org/1999/xlink" x="0px" y="0px"
	 viewBox="0 0 500 500" style="enable-background:new 0 0 500 500;" xml:space="preserve">
<g id="Background_Complete">
	<rect x="416.779" y="398.494" style="fill:#EBEBEB;" width="33.122" height="0.25"/>
	<rect x="322.527" y="401.208" style="fill:#EBEBEB;" width="8.693" height="0.25"/>
	<rect x="396.586" y="389.208" style="fill:#EBEBEB;" width="19.192" height="0.25"/>
	<rect x="52.459" y="390.888" style="fill:#EBEBEB;" width="43.193" height="0.25"/>
	<rect x="104.556" y="390.888" style="fill:#EBEBEB;" width="6.333" height="0.25"/>
	<rect x="131.471" y="395.111" style="fill:#EBEBEB;" width="93.676" height="0.25"/>
	<g>
		<path style="fill:#EBEBEB;" d="M238.401,337.8H45.302c-3.147,0-5.708-2.561-5.708-5.708V60.66c0-3.147,2.561-5.708,5.708-5.708
			h193.099c3.146,0,5.707,2.561,5.707,5.708v271.432C244.108,335.239,241.547,337.8,238.401,337.8z M45.302,55.203
			c-3.01,0-5.458,2.448-5.458,5.458v271.432c0,3.01,2.448,5.458,5.458,5.458h193.099c3.009,0,5.457-2.448,5.457-5.458V60.66
			c0-3.009-2.448-5.458-5.457-5.458H45.302z"/>
		<path style="fill:#EBEBEB;" d="M454.698,337.8H261.599c-3.146,0-5.707-2.561-5.707-5.708V60.66c0-3.147,2.561-5.708,5.707-5.708
			h193.099c3.148,0,5.708,2.561,5.708,5.708v271.432C460.406,335.239,457.845,337.8,454.698,337.8z M261.599,55.203
			c-3.009,0-5.457,2.448-5.457,5.458v271.432c0,3.01,2.448,5.458,5.457,5.458h193.099c3.01,0,5.458-2.448,5.458-5.458V60.66
			c0-3.009-2.448-5.458-5.458-5.458H261.599z"/>
	</g>
	<rect y="382.398" style="fill:#EBEBEB;" width="500" height="0.25"/>
	<g>
		<g>
			
				<rect x="282.974" y="251.47" transform="matrix(-1 -1.224647e-16 1.224647e-16 -1 725.4313 633.964)" style="fill:#F5F5F5;" width="159.484" height="131.023"/>
			<polygon style="fill:#EBEBEB;" points="282.974,254.155 448.901,254.155 419.367,215.492 282.974,215.492 			"/>
			<path style="fill:#E6E6E6;" d="M402.452,343.379c0-7.311,5.927-13.239,13.239-13.239c7.311,0,13.239,5.927,13.239,13.239v32.671
				h-26.477V343.379z"/>
			<path style="fill:#E6E6E6;" d="M355.859,343.379c0-7.311,5.927-13.239,13.239-13.239c7.311,0,13.238,5.927,13.238,13.239v32.671
				h-26.477V343.379z"/>
			<path style="fill:#E6E6E6;" d="M309.267,343.379c0-7.311,5.927-13.239,13.238-13.239c7.311,0,13.239,5.927,13.239,13.239v32.671
				h-26.477V343.379z"/>
			<path style="fill:#E6E6E6;" d="M402.452,272.375c0-7.311,5.927-13.239,13.239-13.239c7.311,0,13.239,5.927,13.239,13.239v32.671
				h-26.477V272.375z"/>
			<path style="fill:#E6E6E6;" d="M355.859,272.375c0-7.311,5.927-13.239,13.239-13.239c7.311,0,13.238,5.927,13.238,13.239v32.671
				h-26.477V272.375z"/>
			<path style="fill:#E6E6E6;" d="M309.267,272.375c0-7.311,5.927-13.239,13.238-13.239c7.311,0,13.239,5.927,13.239,13.239v32.671
				h-26.477V272.375z"/>
			
				<rect x="289.295" y="310.028" transform="matrix(-1 -1.224647e-16 1.224647e-16 -1 738.1962 627.5643)" style="fill:#E6E6E6;" width="159.606" height="7.509"/>
		</g>
		<g>
			<rect x="59.003" y="251.47" style="fill:#F5F5F5;" width="159.484" height="131.023"/>
			<polygon style="fill:#EBEBEB;" points="218.487,254.155 52.559,254.155 82.093,215.492 218.487,215.492 			"/>
			<path style="fill:#E6E6E6;" d="M99.008,343.379c0-7.311-5.927-13.239-13.239-13.239c-7.311,0-13.239,5.927-13.239,13.239v32.671
				h26.477V343.379z"/>
			<path style="fill:#E6E6E6;" d="M145.601,343.379c0-7.311-5.927-13.239-13.239-13.239c-7.311,0-13.239,5.927-13.239,13.239v32.671
				h26.477V343.379z"/>
			<path style="fill:#E6E6E6;" d="M192.194,343.379c0-7.311-5.927-13.239-13.239-13.239c-7.311,0-13.238,5.927-13.238,13.239v32.671
				h26.477V343.379z"/>
			<path style="fill:#E6E6E6;" d="M99.008,272.375c0-7.311-5.927-13.239-13.239-13.239c-7.311,0-13.239,5.927-13.239,13.239v32.671
				h26.477V272.375z"/>
			<path style="fill:#E6E6E6;" d="M145.601,272.375c0-7.311-5.927-13.239-13.239-13.239c-7.311,0-13.239,5.927-13.239,13.239v32.671
				h26.477V272.375z"/>
			<path style="fill:#E6E6E6;" d="M192.194,272.375c0-7.311-5.927-13.239-13.239-13.239c-7.311,0-13.238,5.927-13.238,13.239v32.671
				h26.477V272.375z"/>
			<rect x="52.559" y="310.028" style="fill:#E6E6E6;" width="159.606" height="7.509"/>
		</g>
		<rect x="201.303" y="266.388" style="fill:#F5F5F5;" width="99.342" height="116.106"/>
		<polygon style="fill:#F5F5F5;" points="288.294,262.878 213.654,262.878 213.654,175.642 250.974,143 288.294,175.642 		"/>
		<path style="fill:#E6E6E6;" d="M274.498,324.441c0-12.992-10.532-23.524-23.524-23.524c-12.992,0-23.524,10.532-23.524,23.524
			v58.053h47.047V324.441z"/>
		<rect x="197.007" y="259.551" style="fill:#E6E6E6;" width="107.933" height="7.509"/>
		<circle style="fill:#E6E6E6;" cx="250.974" cy="186.495" r="22.553"/>
		<g>
			<path style="fill:#FAFAFA;" d="M251.818,191.367h-3.797l0.573-21.644c0.019-0.718,0.607-1.291,1.325-1.291l0,0
				c0.719,0,1.306,0.572,1.325,1.291L251.818,191.367z"/>
			<path style="fill:#FAFAFA;" d="M248.02,191.367v-3.797l15.291,0.573c0.507,0.019,0.912,0.607,0.912,1.325l0,0
				c0,0.719-0.404,1.306-0.912,1.325L248.02,191.367z"/>
		</g>
	</g>
	<path style="fill:#F5F5F5;" d="M69.039,110c24.482,9.513,103.707-1.333,103.268-19.333C171.492,57.203,143.984,86,143.984,86
		s-9.741-17.333-24.362-18.667C105,66,102.462,86.667,102.462,86.667S87.667,79.333,81,81.333s-6.944,14-6.944,14
		S47.686,101.703,69.039,110z"/>
	<path style="fill:#F5F5F5;" d="M194.174,130.405c23.057,12.581,103.018,12.005,104.897-5.902
		c3.492-33.291-27.489-8.268-27.489-8.268s-7.433-18.441-21.762-21.643c-14.329-3.201-19.502,16.968-19.502,16.968
		s-13.73-9.174-20.598-8.047c-6.868,1.127-8.686,12.992-8.686,12.992S174.065,119.433,194.174,130.405z"/>
	<path style="fill:#F5F5F5;" d="M335.814,108.685c10.55,7.567,48.146,5.37,49.438-6.195c2.402-21.5-12.731-4.691-12.731-4.691
		s-3.072-11.696-9.734-13.428c-6.662-1.732-9.554,11.363-9.554,11.363s-6.244-5.589-9.498-4.707
		c-3.254,0.882-4.379,8.557-4.379,8.557S326.612,102.085,335.814,108.685z"/>
	<path style="fill:#F0F0F0;" d="M378.243,133.76c12.542,8.996,57.237,6.384,58.773-7.365c2.855-25.559-15.135-5.577-15.135-5.577
		s-3.652-13.904-11.572-15.963c-7.919-2.059-11.358,13.509-11.358,13.509s-7.423-6.644-11.291-5.596
		c-3.868,1.048-5.206,10.173-5.206,10.173S367.305,125.913,378.243,133.76z"/>
</g>
<g id="Background_Simple" style="display:none;">
	<g style="display:inline;">
		<g>
			<path style="fill:#407BFF;" d="M158.738,347.935c52.52,23.341,115.337,15.812,163.789-12.68
				c52.352-30.785,93.16-90.523,88.919-152.952c-2.124-31.26-19.538-87.468-61.8-80.746c-23.058,3.668-39.201,26.123-54.184,42.093
				c-20.945,22.325-44.86,39.592-72.147,53.181c-18.268,9.098-37.385,16.878-57.301,20.896c-14.454,2.916-29.166,3.256-44.031,3.596
				c-10.677,0.244-24.636-0.406-32.682,7.867c-19.316,19.86-4.239,52.719,8.422,71.098
				C112.472,321.699,135.008,337.389,158.738,347.935z"/>
			<path style="opacity:0.9;fill:#FFFFFF;" d="M158.738,347.935c52.52,23.341,115.337,15.812,163.789-12.68
				c52.352-30.785,93.16-90.523,88.919-152.952c-2.124-31.26-19.538-87.468-61.8-80.746c-23.058,3.668-39.201,26.123-54.184,42.093
				c-20.945,22.325-44.86,39.592-72.147,53.181c-18.268,9.098-37.385,16.878-57.301,20.896c-14.454,2.916-29.166,3.256-44.031,3.596
				c-10.677,0.244-24.636-0.406-32.682,7.867c-19.316,19.86-4.239,52.719,8.422,71.098
				C112.472,321.699,135.008,337.389,158.738,347.935z"/>
		</g>
	</g>
</g>
<g id="Shadow">
	<ellipse id="_x3C_Path_x3E__359_" style="fill:#F5F5F5;" cx="250" cy="415.693" rx="193.889" ry="11.323"/>
</g>
<g id="Character_3">
	<g>
		<g>
			<path style="fill:#407BFF;" d="M278.973,208.398h23.051c9.557,0,17.609,7.238,18.525,16.75c0.004,0.044,0.008,0.088,0.012,0.131
				c1.156,12.924,0.972,38.964,0,51.904c-0.039,0.519-0.104,1.153-0.19,1.87c-1.104,9.279-9.005,16.254-18.35,16.254h-32.242
				c-7.863,0-14.987-4.933-17.454-12.399c-0.103-0.312-0.186-0.6-0.245-0.856c-1.492-6.528-2.004-20.395,0-26.783
				c1.116-3.559,7.406-8.686,8.522-12.245c1.726-5.501-2.206-17.734,0-23.061c0.732-1.767,3.31-4.412,5.847-6.727
				C269.871,210.116,274.341,208.398,278.973,208.398z"/>
			<path style="opacity:0.5;" d="M278.973,208.398h23.051c9.557,0,17.609,7.238,18.525,16.75c0.004,0.044,0.008,0.088,0.012,0.131
				c1.156,12.924,0.972,38.964,0,51.904c-0.039,0.519-0.104,1.153-0.19,1.87c-1.104,9.279-9.005,16.254-18.35,16.254h-32.242
				c-7.863,0-14.987-4.933-17.454-12.399c-0.103-0.312-0.186-0.6-0.245-0.856c-1.492-6.528-2.004-20.395,0-26.783
				c1.116-3.559,7.406-8.686,8.522-12.245c1.726-5.501-2.206-17.734,0-23.061c0.732-1.767,3.31-4.412,5.847-6.727
				C269.871,210.116,274.341,208.398,278.973,208.398z"/>
			<path style="fill:#407BFF;" d="M269.813,212.355c-0.207-0.302-0.585-0.599-1.056-0.889c-0.808,0.531-1.586,1.113-2.308,1.772
				c-2.537,2.314-5.115,4.959-5.847,6.727c-2.206,5.326,1.726,17.56,0,23.061c-1.117,3.559-7.406,8.686-8.522,12.245
				c-2.005,6.389-1.492,20.256,0,26.783c0.058,0.256,0.141,0.543,0.245,0.856c2.146,6.495,7.818,11.069,14.433,12.15
				c0.718-0.355,1.31-0.733,1.705-1.136C271.172,291.163,273.351,217.491,269.813,212.355z"/>
			<path style="opacity:0.2;fill:#FFFFFF;" d="M269.813,212.355c-0.207-0.302-0.585-0.599-1.056-0.889
				c-0.808,0.531-1.586,1.113-2.308,1.772c-2.537,2.314-5.115,4.959-5.847,6.727c-2.206,5.326,1.726,17.56,0,23.061
				c-1.117,3.559-7.406,8.686-8.522,12.245c-2.005,6.389-1.492,20.256,0,26.783c0.058,0.256,0.141,0.543,0.245,0.856
				c2.146,6.495,7.818,11.069,14.433,12.15c0.718-0.355,1.31-0.733,1.705-1.136C271.172,291.163,273.351,217.491,269.813,212.355z"
				/>
			<path style="opacity:0.3;" d="M261.744,285.104l-6.375-3.078c-1.22-0.589-1.995-1.824-1.995-3.178v-13.681
				c0-1.949,1.58-3.529,3.529-3.529h6.968c1.998,0,3.597,1.657,3.527,3.654l-0.593,16.759
				C266.715,284.597,264.039,286.212,261.744,285.104z"/>
		</g>
		<polygon style="fill:#CE7A63;" points="335.719,389.859 323.188,390.9 325.313,405.626 335.785,404.773 		"/>
		<g>
			<path style="fill:#407BFF;" d="M311.77,346.507c-4.889-18.841-19.629-41.008-9.845-58.29l34.946,3.263
				c0,0,1.28,32.818,1.522,50.441c0.254,18.324-1.325,52.953-1.325,52.953l-14.357,1.09
				C322.712,395.965,312.916,367.655,311.77,346.507z"/>
			<path style="opacity:0.3;" d="M311.77,346.507c-4.889-18.841-19.629-41.008-9.845-58.29l34.946,3.263
				c0,0,1.28,32.818,1.522,50.441c0.254,18.324-1.325,52.953-1.325,52.953l-14.357,1.09
				C322.712,395.965,312.916,367.655,311.77,346.507z"/>
		</g>
		<path style="fill:#407BFF;" d="M322.037,396.528l15.517-1.139c0.272-0.02,0.487-0.238,0.503-0.51l0.335-5.755
			c0.02-0.341-0.276-0.615-0.614-0.57l-17.215,2.287c-0.331,0.044-0.544,0.373-0.449,0.693l1.363,4.607
			C321.549,396.386,321.782,396.547,322.037,396.528z"/>
		<path style="opacity:0.2;" d="M302.063,304.909c-0.164,4.354,0.066,8.831,0.541,13.34c1.714,5.927,3.903,11.863,5.87,17.619
			C311.049,319.569,311.057,300.572,302.063,304.909z"/>
		<polygon style="fill:#CE7A63;" points="280.927,388.091 268.967,384.183 264.208,398.242 274.196,401.523 		"/>
		<g>
			<path style="fill:#407BFF;" d="M274.993,340.41c-1.703-19.05-7.98-46.876-1.098-55.012l40.882,3.948
				c0,0-8.059,35.585-11.493,53.16c-3.568,18.275-23.879,50.454-23.879,50.454l-12.902-4.315
				C266.503,388.647,270.664,362.15,274.993,340.41z"/>
			<path style="opacity:0.3;" d="M274.993,340.41c-1.703-19.05-7.98-46.876-1.098-55.012l40.882,3.948
				c0,0-8.059,35.585-11.493,53.16c-3.568,18.275-23.879,50.454-23.879,50.454l-12.902-4.315
				C266.503,388.647,270.664,362.15,274.993,340.41z"/>
		</g>
		<path style="fill:#407BFF;" d="M265.445,388.83l14.602,4.926c0.241,0.081,0.501-0.018,0.624-0.239l2.711-4.86
			c0.173-0.31,0.006-0.712-0.337-0.811l-16.131-4.658c-0.287-0.083-0.578,0.084-0.653,0.374l-1.182,4.592
			C265.007,388.439,265.168,388.737,265.445,388.83z"/>
		<path style="fill:#263238;" d="M344.449,246.809l-2.762,0.207c-0.092,0.007-0.283,0.126-0.43,0.198l-0.484,0.25
			c-0.321,0.172-0.647,0.338-0.974,0.495c-0.641,0.328-1.29,0.616-1.909,0.871c-0.684,0.28-1.35,0.5-1.947,0.645l-0.601-11.034
			c-0.104-2.188-0.26-4.373-0.392-6.56c-0.149-2.172-0.297-4.402-0.502-6.495l-0.013-0.133c-0.439-4.368-4.164-7.741-8.632-7.662
			c-4.707,0.083-8.456,3.967-8.372,8.674c0.042,2.374,0.195,4.609,0.38,6.9c0.202,2.276,0.42,4.549,0.724,6.818l0.454,3.404
			l0.545,3.401c0.353,2.269,0.814,4.536,1.276,6.803l0.209,1.029c0.134,0.642,0.395,1.269,0.79,1.843
			c0.775,1.129,1.692,2.313,2.977,3.413c1.259,1.096,2.904,2.115,4.748,2.679c1.838,0.585,3.768,0.668,5.4,0.426
			c1.648-0.238,3.026-0.732,4.209-1.315c2.348-1.196,3.996-2.654,5.406-4.168c0.702-0.758,1.32-1.552,1.901-2.353
			c0.283-0.408,0.556-0.82,0.821-1.239l0.384-0.647l0.412-0.722c0.368-0.642,0.554-1.396,0.494-2.189
			C348.405,248.235,346.563,246.65,344.449,246.809z"/>
		<g>
			<g>
				<path style="fill:#407BFF;" d="M331.455,216.338c6.531,5.471,7.124,24.235,7.124,24.235c-2.937,6.042-9.94,7.046-15.908,7.968
					c0,0-7.602-5.09-9.248-18.448C312.212,220.271,318.244,205.271,331.455,216.338z"/>
			</g>
			<g style="opacity:0.2;">
				<path d="M331.455,216.338c6.531,5.471,7.124,24.235,7.124,24.235c-2.937,6.042-9.94,7.046-15.908,7.968
					c0,0-7.602-5.09-9.248-18.448C312.212,220.271,318.244,205.271,331.455,216.338z"/>
			</g>
		</g>
		<path style="fill:#407BFF;" d="M322.955,211.979c-10.219-2.073-24.019-3.276-34.861-2.808
			c-6.768,0.292-11.883,3.992-12.394,17.746c-1.038,27.899-5.665,49.286-3.097,59.602c0,0,49.922,19.673,65.925,6.987
			c6.784-33.042-2.515-61.917-6.868-73.984C330.267,215.661,326.976,212.794,322.955,211.979z"/>
		<path style="fill:#263238;" d="M335.363,399.512h-10.586c-0.385,0-0.698,0.267-0.752,0.643l-1.206,8.375
			c-0.125,0.869,0.622,1.691,1.511,1.676c3.691-0.064,5.469-0.28,10.124-0.28c2.864,0,7.217,0.298,11.172,0.298
			c3.868,0,4.166-3.911,2.519-4.265c-7.384-1.588-8.72-3.778-11.207-5.868C336.489,399.714,335.927,399.512,335.363,399.512z"/>
		<path style="fill:#407BFF;" d="M338.901,401.159c0.937,0,1.801-0.145,2.285-0.58c0.307-0.276,0.443-0.642,0.403-1.087
			c-0.024-0.266-0.155-0.471-0.379-0.593c-1.154-0.632-4.911,1.286-5.335,1.507c-0.084,0.044-0.131,0.136-0.118,0.229
			c0.013,0.094,0.084,0.169,0.178,0.187C336.735,400.981,337.862,401.159,338.901,401.159z M340.579,399.209
			c0.173,0,0.315,0.025,0.417,0.081c0.092,0.05,0.138,0.125,0.148,0.242c0.027,0.301-0.057,0.535-0.256,0.715
			c-0.572,0.514-2.122,0.604-4.211,0.257C337.97,399.883,339.687,399.209,340.579,399.209z"/>
		<path style="fill:#407BFF;" d="M335.978,400.826c0.031,0,0.062-0.007,0.092-0.02c1.123-0.507,3.345-2.54,3.171-3.607
			c-0.041-0.253-0.22-0.567-0.839-0.63c-0.456-0.046-0.873,0.083-1.236,0.385c-1.185,0.987-1.402,3.523-1.411,3.63
			c-0.006,0.079,0.029,0.155,0.094,0.2C335.888,400.812,335.933,400.826,335.978,400.826z M338.223,397.006
			c0.044,0,0.089,0.002,0.134,0.007c0.407,0.041,0.434,0.204,0.443,0.258c0.105,0.641-1.404,2.239-2.548,2.933
			c0.11-0.739,0.424-2.26,1.201-2.907C337.687,397.102,337.94,397.006,338.223,397.006z"/>
		<path style="fill:#263238;" d="M276.071,396.038l-10.193-2.857c-0.371-0.104-0.744,0.069-0.898,0.417l-3.422,7.739
			c-0.355,0.803,0.143,1.796,1.002,2.021c3.571,0.935,16.55,4.967,20.358,6.035c3.725,1.044,5.066-2.641,3.576-3.427
			c-6.682-3.522-7.233-6.262-9.064-8.945C277.1,396.537,276.613,396.19,276.071,396.038z"/>
		<path style="fill:#407BFF;" d="M279.032,398.578c0.903,0.253,1.773,0.346,2.357,0.058c0.371-0.183,0.6-0.499,0.681-0.938
			c0.048-0.262-0.022-0.495-0.205-0.673c-0.94-0.92-5.076-0.087-5.543,0.011c-0.093,0.019-0.163,0.095-0.176,0.189
			c-0.012,0.094,0.036,0.185,0.12,0.228C276.995,397.823,278.033,398.298,279.032,398.578z M281.175,397.154
			c0.167,0.047,0.296,0.109,0.379,0.19c0.075,0.073,0.099,0.157,0.077,0.273c-0.055,0.297-0.199,0.5-0.44,0.619
			c-0.689,0.34-2.206,0.009-4.124-0.889C278.48,397.099,280.316,396.913,281.175,397.154z"/>
		<path style="fill:#407BFF;" d="M276.308,397.469c0.03,0.008,0.062,0.01,0.094,0.006c1.219-0.185,3.907-1.543,4.027-2.617
			c0.029-0.255-0.059-0.606-0.637-0.833c-0.427-0.168-0.863-0.155-1.294,0.038c-1.407,0.63-2.301,3.014-2.339,3.115
			c-0.027,0.074-0.014,0.157,0.036,0.218C276.225,397.431,276.264,397.457,276.308,397.469z M279.501,394.397
			c0.042,0.012,0.085,0.026,0.127,0.043c0.381,0.15,0.363,0.314,0.357,0.368c-0.072,0.645-1.956,1.777-3.245,2.136
			c0.305-0.682,1.018-2.062,1.941-2.475C278.959,394.345,279.228,394.321,279.501,394.397z"/>
		<path style="opacity:0.2;" d="M273.304,258.16c-0.471,4.735-0.896,9.067-1.167,12.95c4.813,0.721,13.1-1.536,26.312-14.888
			l-3.707-2.102L273.304,258.16z"/>
		<g>
			<path style="fill:#CE7A63;" d="M318.806,214.639c-1.206-1.434-2.669-0.808-3.126-2.835c-0.15-1.442,0.198-2.902,1.17-4.449
				l-15.015-10.077c-0.252,5.858-0.461,10.483-3.266,12.549c-1.171,4.272,6.466,9.383,17.275,10.489
				C322.708,221.019,320.542,216.703,318.806,214.639z"/>
			<path style="opacity:0.2;" d="M316.569,207.828l-12.205-4.337c2.678,5.277,8.108,8.548,11.283,7.641
				C315.655,210.054,315.943,208.965,316.569,207.828z"/>
			<path style="fill:#CE7A63;" d="M314.145,178.809c-8.1-2.63-15.909,3.549-15.031,11.197c0.878,7.648,1.651,12.825,6.588,15.877
				c9.808,6.064,15.308,1.66,16.905-6.092C324.044,192.814,322.367,181.479,314.145,178.809z"/>
			<path style="fill:#263238;" d="M314.712,200.248c0.33,0.009,0.678-0.007,1.044-0.054c0.114-0.014,0.195-0.118,0.181-0.232
				c-0.015-0.115-0.119-0.201-0.233-0.18c-3.084,0.386-4.794-1.579-4.812-1.599c-0.075-0.088-0.205-0.099-0.293-0.024
				c-0.087,0.074-0.098,0.206-0.024,0.293C310.642,198.531,312.074,200.178,314.712,200.248z"/>
			<path style="fill:#263238;" d="M312.579,192.17c0.029,0.671,0.409,1.196,0.848,1.173c0.439-0.023,0.771-0.586,0.742-1.257
				c-0.029-0.671-0.409-1.197-0.848-1.173C312.882,190.936,312.549,191.499,312.579,192.17z"/>
			<path style="fill:#263238;" d="M320.457,191.88c0.029,0.671,0.409,1.196,0.848,1.173c0.439-0.023,0.771-0.586,0.742-1.257
				s-0.409-1.196-0.848-1.173S320.427,191.208,320.457,191.88z"/>
			<path style="fill:#BA4D3C;" d="M317.821,192.344l-0.168,5.64c0,0,1.805,0.491,2.904-0.47
				C320.015,194.612,317.821,192.344,317.821,192.344z"/>
			<path style="fill:#263238;" d="M310.163,190.403c-0.065,0.01-0.133,0.004-0.198-0.021c-0.203-0.077-0.303-0.306-0.224-0.51
				c0.791-2.045,2.567-2.455,2.642-2.471c0.213-0.047,0.422,0.089,0.466,0.302c0.044,0.213-0.091,0.423-0.303,0.47l0,0
				c-0.059,0.013-1.44,0.347-2.071,1.979C310.422,190.29,310.3,190.382,310.163,190.403z"/>
			<path style="fill:#263238;" d="M323.294,189.156c-0.128-0.005-0.25-0.073-0.32-0.19c-0.888-1.491-2.307-1.571-2.368-1.574
				c-0.217-0.01-0.385-0.193-0.374-0.41c0.01-0.217,0.193-0.386,0.411-0.379c0.079,0.005,1.899,0.086,3.012,1.954
				c0.111,0.186,0.049,0.429-0.139,0.542C323.446,189.141,323.369,189.159,323.294,189.156z"/>
			<path style="fill:#263238;" d="M303.004,196.741c0,0,2.953,1.017,2.509-3.397c-0.444-4.413,0.046-10.112,0.046-10.112
				s19.648,2.084,17.776-3.918c-1.036-3.323-5.177,0.181-5.177,0.181s1.834-3.86-0.826-4.635c-2.296-0.669-3.162,2.969-3.162,2.969
				s-14.652-3.937-16.782,6.648C295.259,195.063,303.004,196.741,303.004,196.741z"/>
			<path style="fill:#407BFF;" d="M296.087,174.779c-9.136,8.098-4.004,15.579-0.626,18.988c-1.7,2.234-5.792,7.998-4.139,9.724
				c1.684,1.758,4.911-5.335,6.046-8.018c0.195,0.152,0.311,0.234,0.311,0.234s2.225-9.897,16.491-17.877
				C314.17,177.83,306.661,165.406,296.087,174.779z"/>
			<path style="fill:#263238;" d="M313.399,176.734c-0.432-0.561-1.041-1.277-1.803-2.006c-0.901-0.355-1.942-0.351-3.105,0.326
				c-2.634,1.533-1.605,3.52-0.398,4.84C309.16,179.087,311.103,177.753,313.399,176.734z"/>
			<path style="opacity:0.5;fill:#FFFFFF;" d="M292.343,179.254c-3.515,6.271,0.352,11.711,3.093,14.488l2.34-3.12
				C294.134,186.593,292.779,181.438,292.343,179.254z"/>
			<g>
				<path style="fill:#407BFF;" d="M321.411,189.214c-1.216,0-2.228,1.101-2.446,2.551c-0.51-0.317-1.16-0.319-1.673-0.005
					c-0.275-1.447-1.545-2.546-3.071-2.546c-1.659,0-3.008,1.302-3.11,2.936h-11.207v0.387h11.207
					c0.102,1.634,1.451,2.936,3.11,2.936c1.726,0,3.13-1.404,3.13-3.13c0-0.047-0.012-0.091-0.014-0.138
					c0.458-0.396,1.139-0.391,1.591,0.015c-0.001,0.042-0.01,0.081-0.01,0.123c0,1.726,1.118,3.13,2.492,3.13
					c1.374,0,2.492-1.404,2.492-3.13S322.785,189.214,321.411,189.214z M314.222,195.087c-1.512,0-2.742-1.231-2.742-2.743
					c0-1.512,1.23-2.742,2.742-2.742c1.512,0,2.743,1.231,2.743,2.742C316.964,193.856,315.734,195.087,314.222,195.087z
					 M321.411,195.087c-1.161,0-2.105-1.231-2.105-2.743c0-1.512,0.944-2.742,2.105-2.742c1.161,0,2.105,1.231,2.105,2.742
					C323.515,193.856,322.571,195.087,321.411,195.087z"/>
				<path style="opacity:0.5;fill:#FFFFFF;" d="M321.411,189.214c-1.216,0-2.228,1.101-2.446,2.551
					c-0.51-0.317-1.16-0.319-1.673-0.005c-0.275-1.447-1.545-2.546-3.071-2.546c-1.659,0-3.008,1.302-3.11,2.936h-11.207v0.387
					h11.207c0.102,1.634,1.451,2.936,3.11,2.936c1.726,0,3.13-1.404,3.13-3.13c0-0.047-0.012-0.091-0.014-0.138
					c0.458-0.396,1.139-0.391,1.591,0.015c-0.001,0.042-0.01,0.081-0.01,0.123c0,1.726,1.118,3.13,2.492,3.13
					c1.374,0,2.492-1.404,2.492-3.13S322.785,189.214,321.411,189.214z M314.222,195.087c-1.512,0-2.742-1.231-2.742-2.743
					c0-1.512,1.23-2.742,2.742-2.742c1.512,0,2.743,1.231,2.743,2.742C316.964,193.856,315.734,195.087,314.222,195.087z
					 M321.411,195.087c-1.161,0-2.105-1.231-2.105-2.743c0-1.512,0.944-2.742,2.105-2.742c1.161,0,2.105,1.231,2.105,2.742
					C323.515,193.856,322.571,195.087,321.411,195.087z"/>
			</g>
			<path style="fill:#CE7A63;" d="M296.582,196.52c0.978,1.674,2.643,2.735,4.197,3.107c2.338,0.56,3.438-1.554,2.73-3.714
				c-0.637-1.944-2.62-4.578-4.939-4.176C296.286,192.134,295.465,194.606,296.582,196.52z"/>
		</g>
		<path style="fill:#407BFF;" d="M298.36,210.754c-2.574-2.694-6.944-3.086-10.488-2.258v0.681
			c3.272,0.302,8.642,2.698,9.769,17.423c1.491,19.468-19.527,42.981-26.055,49.557c-1.178,1.187-1.891,2.751-2.017,4.418
			l-0.254,3.37c-0.125,1.656,1.798,2.649,3.075,1.587c8.857-7.367,31.974-29.084,31.974-55.042
			C304.363,219.903,301.482,214.021,298.36,210.754z"/>
		<path style="opacity:0.5;" d="M298.36,210.754c-2.574-2.694-6.944-3.086-10.488-2.258v0.681c3.272,0.302,8.642,2.698,9.769,17.423
			c1.491,19.468-19.527,42.981-26.055,49.557c-1.178,1.187-1.891,2.751-2.017,4.418l-0.254,3.37
			c-0.125,1.656,1.798,2.649,3.075,1.587c8.857-7.367,31.974-29.084,31.974-55.042C304.363,219.903,301.482,214.021,298.36,210.754z
			"/>
		<g>
			<path style="fill:#263238;" d="M300.601,250.702c-0.709-2.251-3.109-3.501-5.36-2.792l-0.2,0.063
				c-2.411,0.76-4.958,1.615-7.416,2.337c-2.471,0.736-4.923,1.42-7.302,1.929c-1.187,0.256-2.347,0.49-3.462,0.638
				c-0.729,0.097-1.433,0.161-2.089,0.196c0.091-0.628,0.202-1.269,0.356-1.935c0.225-1.011,0.559-2.063,0.931-3.119
				c0.353-1.062,0.787-2.142,1.264-3.22c0.958-2.154,2.082-4.34,3.328-6.481c0.613-1.078,1.281-2.133,1.938-3.186l1.009-1.551
				l0.498-0.75l0.427-0.624l0.313-0.456c2.521-3.699,1.747-8.767-1.845-11.533c-3.725-2.867-9.069-2.172-11.937,1.553l-0.828,1.076
				l-0.72,0.976c-0.465,0.648-0.906,1.304-1.34,1.961c-0.875,1.31-1.672,2.662-2.452,4.033c-0.782,1.37-1.487,2.791-2.175,4.235
				c-0.69,1.442-1.32,2.93-1.882,4.47c-1.151,3.063-2.073,6.323-2.55,9.847c-0.226,1.766-0.403,3.577-0.329,5.475
				c0.061,1.891,0.285,3.837,0.737,5.793l0.101,0.443c0.231,0.98,0.678,1.926,1.349,2.765c1.127,1.408,2.602,2.542,4.039,3.264
				c1.445,0.738,2.827,1.106,4.056,1.294c2.469,0.365,4.444,0.17,6.228-0.109c1.785-0.283,3.373-0.735,4.88-1.242
				c1.503-0.51,2.925-1.064,4.293-1.678c2.728-1.236,5.27-2.616,7.708-4.12c2.448-1.526,4.734-3.082,7.041-4.942
				C300.531,254.239,301.144,252.424,300.601,250.702z"/>
			<g>
				<path style="fill:#407BFF;" d="M280.558,211.247c-13.632,7.181-19.571,23.374-19.571,23.374
					c2.658,5.139,15.74,9.241,21.847,7.754c0,0,9.009-9.057,10.271-18.593C294.273,214.953,288.547,207.038,280.558,211.247z"/>
			</g>
			<g style="opacity:0.2;">
				<path d="M280.558,211.247c-13.632,7.181-19.571,23.374-19.571,23.374c2.658,5.139,15.74,9.241,21.847,7.754
					c0,0,9.009-9.057,10.271-18.593C294.273,214.953,288.547,207.038,280.558,211.247z"/>
			</g>
		</g>
		<path style="fill:#CE7A63;" d="M295.59,250.247l1.976,2.81c4.609,3.125,7.602-3.495,7.602-3.495l2.725-2.602
			c0.924-0.882,0.986-2.419,0.147-3.632l-2.108-3.047c-0.96-1.389-2.743-1.853-3.953-1.029l-2.717,1.852
			c-0.79,0.539-1.435,1.265-1.877,2.113l-2.006,3.852C294.85,248.085,294.932,249.311,295.59,250.247z"/>
		<g>
			<path style="fill:#407BFF;" d="M339.939,251.8l0.271-5.04c0.108-2.01-0.039-4.024-0.461-5.993
				c-1.235-5.769-4.84-17.695-14.699-27.972c-0.437-0.456-1.01-0.765-1.628-0.895l-5.115-1.074
				c-0.402-0.085-0.646,0.427-0.324,0.681c4.556,3.588,18.718,16.503,21.6,40.293H339.939z"/>
			<path style="opacity:0.5;" d="M339.939,251.8l0.271-5.04c0.108-2.01-0.039-4.024-0.461-5.993
				c-1.235-5.769-4.84-17.695-14.699-27.972c-0.437-0.456-1.01-0.765-1.628-0.895l-5.115-1.074
				c-0.402-0.085-0.646,0.427-0.324,0.681c4.556,3.588,18.718,16.503,21.6,40.293H339.939z"/>
		</g>
		<path style="fill:#CE7A63;" d="M348.448,250.247l-1.976,2.81c-4.609,3.125-7.602-3.495-7.602-3.495l-2.725-2.602
			c-0.924-0.882-0.986-2.419-0.147-3.632l2.108-3.047c0.96-1.389,2.743-1.853,3.953-1.029l2.717,1.852
			c0.79,0.539,1.435,1.265,1.877,2.113l2.006,3.852C349.189,248.085,349.107,249.311,348.448,250.247z"/>
	</g>
</g>
<g id="Character_4">
	<g>
		<path style="fill:#263238;" d="M369.803,189.777c0,0-14.563-1.582-9.722,8.266c0,0-11.207,1.992-3.183,11.535
			c0,0-10.371,6.914-2.32,11.314c0,0-7.029,14.152,7.052,8.908c0,0,6.248,10.505,14.728,1.016c0,0,13.701,8.502,14.202-1.016
			c0,0,11.116-1.191,0.775-10.486c0,0,4.323-3.015-0.686-9.737c0,0,5.834-3.923-1.972-9.028c0,0,5.683-5.986-3.13-9.004
			c0,0,1.675-7.278-7.442-3.405C378.105,188.14,377.008,181.152,369.803,189.777z"/>
		<g>
			<g>
				<g>
					<path style="fill:#407BFF;" d="M352.598,247.056c-5.065,3.383-6.579,9.153-6.111,14.947c0.087,1.083,1.792,1.117,1.703,0.023
						c-0.414-5.126,0.7-10.45,5.248-13.487C354.344,247.933,353.513,246.445,352.598,247.056L352.598,247.056z"/>
				</g>
				<g style="opacity:0.2;">
					<path d="M352.598,247.056c-5.065,3.383-6.579,9.153-6.111,14.947c0.087,1.083,1.792,1.117,1.703,0.023
						c-0.414-5.126,0.7-10.45,5.248-13.487C354.344,247.933,353.513,246.445,352.598,247.056L352.598,247.056z"/>
				</g>
			</g>
			<g>
				<path style="fill:#407BFF;" d="M364.249,227.202l13.004,0.173c5.392,0.072,9.88,4.216,10.325,9.589
					c0.002,0.025,0.004,0.05,0.006,0.074c0.555,7.3,0.255,21.99-0.391,29.282c-0.026,0.292-0.068,0.65-0.121,1.053
					c-0.693,5.227-5.203,9.102-10.475,9.032l-18.19-0.243c-4.436-0.059-8.418-2.896-9.754-7.126c-0.056-0.177-0.1-0.34-0.132-0.485
					c-0.792-3.694-0.977-11.521,0.201-15.11c0.657-1.999,4.243-4.845,4.9-6.844c1.015-3.09-1.111-10.022,0.174-13.01
					c0.426-0.992,1.901-2.464,3.349-3.751C359.101,228.103,361.636,227.167,364.249,227.202z"/>
				<path style="opacity:0.5;" d="M364.249,227.202l13.004,0.173c5.392,0.072,9.88,4.216,10.325,9.589
					c0.002,0.025,0.004,0.05,0.006,0.074c0.555,7.3,0.255,21.99-0.391,29.282c-0.026,0.292-0.068,0.65-0.121,1.053
					c-0.693,5.227-5.203,9.102-10.475,9.032l-18.19-0.243c-4.436-0.059-8.418-2.896-9.754-7.126c-0.056-0.177-0.1-0.34-0.132-0.485
					c-0.792-3.694-0.977-11.521,0.201-15.11c0.657-1.999,4.243-4.845,4.9-6.844c1.015-3.09-1.111-10.022,0.174-13.01
					c0.426-0.992,1.901-2.464,3.349-3.751C359.101,228.103,361.636,227.167,364.249,227.202z"/>
				<path style="fill:#407BFF;" d="M359.051,229.366c-0.115-0.172-0.326-0.342-0.589-0.51c-0.46,0.293-0.903,0.616-1.315,0.982
					c-1.449,1.287-2.923,2.759-3.349,3.751c-1.285,2.988,0.841,9.92-0.174,13.01c-0.657,1.999-4.243,4.845-4.9,6.844
					c-1.179,3.589-0.994,11.416-0.202,15.11c0.031,0.145,0.076,0.308,0.132,0.485c1.162,3.68,4.327,6.303,8.051,6.963
					c0.408-0.195,0.745-0.404,0.97-0.628C359.224,273.836,361.008,232.29,359.051,229.366z"/>
				<path style="opacity:0.2;fill:#FFFFFF;" d="M359.051,229.366c-0.115-0.172-0.326-0.342-0.589-0.51
					c-0.46,0.293-0.903,0.616-1.315,0.982c-1.449,1.287-2.923,2.759-3.349,3.751c-1.285,2.988,0.841,9.92-0.174,13.01
					c-0.657,1.999-4.243,4.845-4.9,6.844c-1.179,3.589-0.994,11.416-0.202,15.11c0.031,0.145,0.076,0.308,0.132,0.485
					c1.162,3.68,4.327,6.303,8.051,6.963c0.408-0.195,0.745-0.404,0.97-0.628C359.224,273.836,361.008,232.29,359.051,229.366z"/>
			</g>
			<path style="opacity:0.2;" d="M347.922,259.162c-0.133,3.408,0.121,7.156,0.601,9.391c0.031,0.145,0.076,0.308,0.132,0.485
				c1.162,3.68,4.327,6.303,8.051,6.963c0.408-0.195,0.745-0.404,0.97-0.628c0.616-0.611,1.269-7.553,1.709-15.875
				C354.579,261.315,349.672,259.823,347.922,259.162z"/>
		</g>
		<polygon style="fill:#FFB573;" points="373.12,403.749 379.461,403.749 382.057,389.064 375.716,389.064 		"/>
		<path style="fill:#263238;" d="M379.952,403.015h-7.124c-0.259,0-0.47,0.18-0.506,0.433l-0.812,5.636
			c-0.084,0.585,0.419,1.138,1.017,1.128c2.484-0.043,3.681-0.189,6.814-0.189c1.927,0,7.463,0.2,10.125,0.2
			c2.603,0,2.803-2.632,1.695-2.87c-4.969-1.069-8.474-2.543-10.148-3.949C380.71,403.151,380.331,403.015,379.952,403.015z"/>
		<g style="opacity:0.2;">
			<polygon points="382.055,389.068 380.719,396.637 374.375,396.637 375.712,389.068 			"/>
		</g>
		<g>
			<path style="fill:#263238;" d="M390.457,261c0,0,5.002,48.847,4.586,68.184c-0.432,20.114-12.943,65.987-12.943,65.987h-8.574
				c0,0,6.498-44.698,5.74-64.452c-0.826-21.535-7.667-69.72-7.667-69.72H390.457z"/>
		</g>
		<polygon style="fill:#407BFF;" points="372.782,395.479 382.843,395.479 383.581,392.27 372.314,391.877 		"/>
		<path style="opacity:0.6;" d="M379.348,273.154c6.326,12.725,1.27,35.938-0.967,44.574c-1.147-12.971-3.081-28.826-4.589-40.469
			C374.751,270.671,376.431,267.287,379.348,273.154z"/>
		<polygon style="fill:#FFB573;" points="317.863,347.034 320.001,353.004 334.611,350.246 332.474,344.276 		"/>
		<path style="fill:#263238;" d="M321.725,353.195l-0.498-7.107c-0.018-0.259-0.214-0.479-0.471-0.531l-5.73-1.146
			c-0.595-0.119-1.116,0.35-1.064,0.947c0.217,2.48,0.447,3.683,0.666,6.808c0.135,1.923,0.32,7.433,0.506,10.088
			c0.182,2.597,2.845,2.953,3.008,1.862c0.729-4.894,1.967-8.302,3.266-9.888C321.641,353.943,321.752,353.574,321.725,353.195z"/>
		<g style="opacity:0.2;">
			<polygon points="334.607,350.246 327.076,351.668 324.938,345.696 332.468,344.273 			"/>
		</g>
		<g>
			<path style="fill:#263238;" d="M383.333,261c0,0-7.028,50.407-11.8,69.373c-4.964,19.728-41.946,21.411-41.946,21.411
				l-3.764-7.704c0,0,21.59-5.745,30.914-18.729c2.415-12.727,2.389-33.297,3.844-47.747c0.487-4.836,1.46-8.987,2.312-11.929
				c0.852-2.942,2.356-5.449,2.356-5.449L383.333,261z"/>
		</g>
		<polygon style="fill:#407BFF;" points="325.386,343.362 328.69,352.865 332.101,352.901 328.788,342.179 		"/>
		<path style="fill:#407BFF;" d="M320.776,355.504c0.044,0.629,0.183,1.215,0.5,1.558c0.202,0.217,0.456,0.323,0.755,0.314
			c0.179-0.005,0.312-0.085,0.384-0.23c0.374-0.749-1.102-3.348-1.271-3.642c-0.034-0.058-0.098-0.094-0.161-0.089
			c-0.063,0.005-0.11,0.05-0.118,0.112C320.795,354.057,320.727,354.807,320.776,355.504z M322.176,356.709
			c0.008,0.116-0.002,0.21-0.035,0.276c-0.03,0.06-0.078,0.087-0.157,0.09c-0.203,0.006-0.365-0.06-0.496-0.201
			c-0.375-0.404-0.509-1.449-0.372-2.837C321.596,354.93,322.134,356.11,322.176,356.709z"/>
		<path style="fill:#407BFF;" d="M320.864,353.556c0.001,0.021,0.007,0.042,0.018,0.062c0.397,0.774,1.878,2.348,2.593,2.273
			c0.169-0.017,0.374-0.125,0.387-0.538c0.01-0.305-0.097-0.59-0.319-0.845c-0.724-0.835-2.452-1.082-2.526-1.093
			c-0.054-0.007-0.104,0.013-0.131,0.055C320.869,353.495,320.862,353.525,320.864,353.556z M323.557,355.216
			c0.002,0.03,0.003,0.06,0.002,0.09c-0.009,0.272-0.118,0.283-0.154,0.287c-0.429,0.044-1.583-1.032-2.107-1.829
			c0.506,0.104,1.551,0.375,2.026,0.923C323.467,354.852,323.544,355.026,323.557,355.216z"/>
		<path style="fill:#407BFF;" d="M382.332,404.123c0.631,0,1.212-0.098,1.538-0.39c0.207-0.186,0.298-0.432,0.271-0.731
			c-0.016-0.179-0.104-0.317-0.255-0.399c-0.776-0.426-3.305,0.865-3.59,1.014c-0.057,0.029-0.088,0.091-0.079,0.155
			c0.009,0.063,0.057,0.114,0.12,0.126C380.875,404.003,381.634,404.123,382.332,404.123z M383.462,402.811
			c0.116,0,0.212,0.017,0.28,0.054c0.062,0.034,0.093,0.084,0.099,0.163c0.018,0.203-0.038,0.36-0.173,0.481
			c-0.385,0.346-1.428,0.406-2.834,0.173C381.706,403.265,382.862,402.811,383.462,402.811z"/>
		<path style="fill:#407BFF;" d="M380.366,403.899c0.021,0,0.042-0.004,0.062-0.013c0.756-0.341,2.251-1.709,2.134-2.427
			c-0.028-0.17-0.148-0.382-0.564-0.424c-0.307-0.031-0.588,0.056-0.832,0.259c-0.797,0.664-0.944,2.371-0.95,2.443
			c-0.004,0.053,0.02,0.104,0.063,0.135C380.305,403.89,380.335,403.899,380.366,403.899z M381.877,401.328
			c0.029,0,0.06,0.002,0.09,0.005c0.274,0.028,0.292,0.138,0.298,0.174c0.07,0.431-0.945,1.507-1.715,1.974
			c0.074-0.497,0.285-1.521,0.808-1.956C381.516,401.393,381.686,401.328,381.877,401.328z"/>
		<g>
			<g>
				<path style="fill:#FFB573;" d="M396.267,231.122c-0.035,0.724-0.056,1.615-0.076,2.439c-0.018,0.84-0.021,1.685-0.011,2.53
					c0.03,1.69,0.06,3.384,0.164,5.07c0.192,3.371,0.565,6.72,1.187,9.981l0.257,1.214l0.128,0.608
					c0.028,0.134,0.007,0.082,0.006,0.123c-0.013,0.033-0.065,0.118,0.23,0.348c0.595,0.447,2.095,0.806,3.601,0.909
					c3.086,0.221,6.611-0.109,9.937-0.555l1.107,3.673c-3.494,1.454-6.99,2.523-11.003,2.862c-2.012,0.098-4.169,0.177-6.761-1
					c-0.64-0.309-1.305-0.734-1.915-1.304c-0.607-0.569-1.145-1.292-1.517-2.07c-0.087-0.194-0.178-0.391-0.251-0.588l-0.104-0.296
					l-0.079-0.246l-0.199-0.681l-0.397-1.364c-0.978-3.649-1.577-7.347-1.92-11.045c-0.158-1.85-0.265-3.702-0.279-5.557
					c-0.009-0.928-0.004-1.855,0.018-2.788c0.016-0.949,0.067-1.829,0.152-2.874L396.267,231.122z"/>
				<g>
					<path style="fill:#FFB573;" d="M410.344,254.175l4.956-1.725l-2.038,6.118c0,0-4.005,0.736-5.649-1.325l0.214-0.588
						C408.251,255.492,409.175,254.582,410.344,254.175z"/>
					<polygon style="fill:#FFB573;" points="419.953,253.222 419.037,258.551 413.262,258.568 415.3,252.45 					"/>
				</g>
			</g>
			<g>
				<path style="fill:#407BFF;" d="M394.707,223.555c2.483,1.052,2.668,11.96,2.668,11.96l-7.858,3.755
					c0,0-5.19-11.767-2.769-14.305C389.269,222.323,391.083,222.02,394.707,223.555z"/>
				<path style="opacity:0.7;fill:#FFFFFF;" d="M394.707,223.555c2.483,1.052,2.668,11.96,2.668,11.96l-7.858,3.755
					c0,0-5.19-11.767-2.769-14.305C389.269,222.323,391.083,222.02,394.707,223.555z"/>
			</g>
			<polygon style="opacity:0.2;" points="393.976,225.656 394.94,236.638 390.649,238.984 			"/>
		</g>
		<g>
			<path style="fill:#407BFF;" d="M394.169,225.566c0.278,3.927-0.107,13.265-3.712,35.434h-25.754
				c0.414-10.053-0.195-14.993-4.666-34.359c-0.347-1.502,0.483-3.027,1.936-3.54c2.286-0.806,5.792-1.838,9.101-1.998
				c4.334-0.209,7.884-0.347,11.694,0c3.052,0.279,6.353,0.818,8.473,1.199C392.852,222.592,394.054,223.934,394.169,225.566z"/>
		</g>
		<path style="opacity:0.9;fill:#FFFFFF;" d="M371.074,221.103c-0.782,0.038-1.574,0.127-2.359,0.248
			c-0.333,1.107-0.646,4.089,3.888,7.451c0,0,1.577-3.614,9.824-0.774c0,0,3.342-3.187,5.278-0.69c0,0,0.092-3.651-2.868-6.011
			c-0.691-0.084-1.386-0.16-2.069-0.223C378.958,220.756,375.408,220.895,371.074,221.103z"/>
		<path style="fill:#FFB573;" d="M371.077,221.107c4.335-0.213,7.883-0.352,11.693,0c0.254,0.025,0.508,0.049,0.762,0.074
			c0.934,1.77,1.172,2.167-1.065,6.157c0,0-10.259-1.806-12.93-6.132C370.045,221.164,370.561,221.132,371.077,221.107z"/>
		<path style="fill:#FFB573;" d="M372.233,207.936c0.738,3.763,1.474,10.657-1.159,13.168c0,0,1.029,3.817,8.02,3.817
			c7.688,0,3.674-3.816,3.674-3.816c-4.196-1.002-4.088-4.115-3.357-7.039L372.233,207.936z"/>
		<path style="opacity:0.2;" d="M375.159,210.437l4.249,3.625c-0.175,0.692-0.312,1.394-0.361,2.076
			c-1.603-0.232-3.805-1.991-3.975-3.67C374.988,211.631,375.023,210.827,375.159,210.437z"/>
		<path style="fill:#FFB573;" d="M368.174,201.415c1.435,6.128,1.911,8.752,5.58,11.398c5.518,3.98,12.731,0.878,13.156-5.555
			c0.383-5.79-2.027-14.838-8.508-16.271C372.016,189.577,366.74,195.288,368.174,201.415z"/>
		<path style="fill:#263238;" d="M378.458,189.777c2.491,0.43,5.648,4.128,6.314,5.637c-3.737-0.689-14.02,2.495-14.02,2.495
			s-4.604-0.516-2.022-4.066C371.311,190.294,378.458,189.777,378.458,189.777z"/>
		<path style="fill:#263238;" d="M378.947,201.378c0.086,0.504,0.423,0.867,0.752,0.811c0.33-0.056,0.527-0.51,0.441-1.015
			c-0.086-0.504-0.423-0.867-0.752-0.811C379.059,200.42,378.861,200.874,378.947,201.378z"/>
		<path style="fill:#263238;" d="M384.396,200.408c0.086,0.504,0.423,0.867,0.752,0.811c0.33-0.056,0.527-0.51,0.441-1.015
			c-0.086-0.504-0.423-0.867-0.752-0.811C384.508,199.45,384.31,199.904,384.396,200.408z"/>
		<path style="fill:#263238;" d="M384.697,199.446l1.152-0.555C385.848,198.891,385.388,199.943,384.697,199.446z"/>
		<path style="fill:#ED893E;" d="M382.927,201.616c0,0,1.225,2.025,2.345,2.912c-0.56,0.735-1.74,0.643-1.74,0.643L382.927,201.616z
			"/>
		<path style="fill:#263238;" d="M382.118,208.114c0.238-0.004,0.489-0.026,0.752-0.071c0.082-0.014,0.137-0.091,0.123-0.173
			c-0.014-0.082-0.098-0.136-0.173-0.123c-2.22,0.377-3.51-0.993-3.522-1.007c-0.056-0.061-0.151-0.065-0.212-0.008
			c-0.061,0.056-0.065,0.151-0.008,0.212C379.128,206.999,380.212,208.144,382.118,208.114z"/>
		<path style="fill:#263238;" d="M375.845,200.607c0.127-0.002,0.243-0.084,0.282-0.212c0.41-1.328,2.107-1.895,2.124-1.9
			c0.158-0.051,0.244-0.221,0.193-0.379c-0.051-0.157-0.22-0.244-0.379-0.193c-0.082,0.027-2.011,0.672-2.512,2.294
			c-0.049,0.159,0.04,0.327,0.199,0.376C375.783,200.603,375.814,200.607,375.845,200.607z"/>
		<path style="fill:#263238;" d="M385.208,198.16c0.102,0.014,0.208-0.025,0.276-0.112c0.103-0.13,0.081-0.319-0.05-0.422
			c-1.303-1.029-2.624-0.603-2.679-0.584c-0.157,0.053-0.242,0.223-0.189,0.381c0.052,0.156,0.222,0.242,0.379,0.189l0,0
			c0.043-0.014,1.075-0.337,2.116,0.486C385.106,198.132,385.156,198.153,385.208,198.16z"/>
		<path style="fill:#263238;" d="M379.247,200.417l1.152-0.555C380.399,199.861,379.939,200.913,379.247,200.417z"/>
		<path style="fill:#263238;" d="M387.559,239.212l-3.959-9.063c0,0,3.079,4.242,4.168,2.604c0.915-1.377-3.344-3.381-4.722-3.984
			c-0.263-0.115-0.56-0.082-0.791,0.088c-1.5,1.097-6.899,5.326-4.441,7.708c2.84,2.754,4.285-6.882,4.285-6.882l-0.699,10.626
			l1.277,0.498l0.156-10.603l3.811,10.085L387.559,239.212z M387.154,232.346c-0.466,0.57-2.675-2.224-2.675-2.224
			S387.62,231.775,387.154,232.346z M378.318,235.609c-1.079-1.806,2.963-5.226,2.963-5.226S379.397,237.415,378.318,235.609z"/>
		<path style="fill:#407BFF;" d="M388.718,200.303c-0.314-1.697-1.669-2.874-3.02-2.624c-1.196,0.221-1.991,1.488-1.941,2.953
			c-0.56-0.219-1.199-0.102-1.646,0.299c-0.534-1.373-1.983-2.222-3.483-1.944c-1.632,0.302-2.721,1.828-2.524,3.453l-6.772,1.253
			l0.023,0.39l6.82-1.262c0.398,1.588,1.961,2.623,3.592,2.321c1.697-0.314,2.822-1.95,2.508-3.647
			c-0.009-0.046-0.028-0.087-0.039-0.133c0.379-0.472,1.049-0.592,1.567-0.275c0.007,0.041,0.005,0.081,0.013,0.123
			c0.314,1.697,1.669,2.874,3.02,2.624C388.188,203.584,389.032,202,388.718,200.303z M379.698,204.761
			c-1.487,0.275-2.921-0.711-3.196-2.198c-0.275-1.487,0.711-2.921,2.198-3.196c1.487-0.275,2.921,0.711,3.196,2.198
			C382.17,203.052,381.185,204.486,379.698,204.761z M386.767,203.453c-1.141,0.211-2.294-0.827-2.569-2.314
			c-0.275-1.487,0.429-2.869,1.571-3.08c1.141-0.211,2.293,0.827,2.569,2.314C388.612,201.86,387.908,203.242,386.767,203.453z"/>
		<path style="fill:#263238;" d="M370.709,195.887c2.22,1.701,1.248,7.874-1.506,9.767
			C364.9,204.622,364.082,190.81,370.709,195.887z"/>
		<path style="fill:#FFB573;" d="M367.463,207.379c0.646,1.133,1.755,1.863,2.794,2.129c1.562,0.401,2.309-1.005,1.846-2.461
			c-0.417-1.311-1.731-3.099-3.285-2.855C367.287,204.434,366.724,206.083,367.463,207.379z"/>
		<g>
			<g>
				<path style="fill:#263238;" d="M418.325,253.114l-8.572-8.572c-2.71-2.71-4.233-6.386-4.233-10.219v0h-8.52l0,0
					c0,3.833-1.523,7.509-4.233,10.219l-8.572,8.572H418.325z"/>
				<path style="opacity:0.2;fill:#FFFFFF;" d="M415.36,253.114c-3.533-0.479-6.816-8.488-8.422-8.296
					c-1.606,0.192,3.874,7.023,1.647,7.021c-2.227-0.002-3.531-2.618-4.451-2.522c-0.92,0.096-2.278,2.902-3.827,2.707
					c-1.549-0.195-0.528-3.97-1.351-4.068c-0.823-0.098-2.28,4.693-4.071,4.159c-1.791-0.534,3.01-8.129,2.042-8.416
					c-0.968-0.287-3.15,2.751-4.944,6.234c-0.904,1.754-2.199,2.672-3.262,3.152L415.36,253.114z"/>
				<path style="opacity:0.2;fill:#FFFFFF;" d="M401.261,242.632c-1.206-0.17-2.064,3.083-0.854,3.503
					C401.617,246.556,402.467,242.803,401.261,242.632z"/>
				<g>
					<path style="fill:#407BFF;" d="M396.527,234.565c0,0-0.383-1.32,2.64-1.32s6.855-0.298,6.855,1.32s-0.298,1.788,0.213,2.895
						c0.511,1.107-1.661-0.085-1.916-1.49c-0.255-1.405-1.576,0.681-1.363,2.81c0.213,2.129-1.479,2.342-1.634-0.809
						c-0.155-3.151-1.73-3.151-1.773-1.874s-1.15,1.661-1.703,0.298c-0.553-1.363,0.01,2.863-1.038,2.517
						C395.761,238.568,396.484,236.439,396.527,234.565z"/>
					<path style="opacity:0.2;" d="M405.107,233.863c-0.032-0.183-0.223-0.323-0.473-0.429c-1.389-0.303-3.584-0.188-5.467-0.188
						c-0.541,0-0.969,0.043-1.313,0.113c-0.305,0.134-0.693,0.359-0.667,0.632C397.23,234.437,405.213,234.48,405.107,233.863z"/>
				</g>
			</g>
			<g>
				<rect x="376.454" y="252.596" style="fill:#407BFF;" width="46.962" height="2.849"/>
				<rect x="376.454" y="252.596" style="opacity:0.5;fill:#FFFFFF;" width="46.962" height="2.849"/>
				<rect x="376.454" y="252.596" style="opacity:0.3;" width="23.481" height="2.849"/>
			</g>
		</g>
		<path style="fill:#407BFF;" d="M363.735,222.833c3.444,2.41,13.531,12.445-4.615,39.319c-0.299,0.443-0.491,0.957-0.548,1.489
			l-0.269,2.535c-0.062,0.587,0.692,0.879,1.035,0.399c3.627-5.085,13.832-20.24,13.831-29.782
			c-0.002-9.603-3.39-13.507-5.533-15.017c-0.901-0.635-2.074-0.736-3.092-0.313l-0.698,0.29
			C363.391,221.942,363.332,222.552,363.735,222.833z"/>
		<path style="opacity:0.5;" d="M363.735,222.833c3.444,2.41,13.531,12.445-4.615,39.319c-0.299,0.443-0.491,0.957-0.548,1.489
			l-0.269,2.535c-0.062,0.587,0.692,0.879,1.035,0.399c3.627-5.085,13.832-20.24,13.831-29.782
			c-0.002-9.603-3.39-13.507-5.533-15.017c-0.901-0.635-2.074-0.736-3.092-0.313l-0.698,0.29
			C363.391,221.942,363.332,222.552,363.735,222.833z"/>
		<g>
			<path style="fill:#FFB573;" d="M374.532,253.327c-1.7-0.361-3.377-0.818-4.802-1.363c-0.631-0.243-1.21-0.538-1.551-0.789
				l-0.026-0.163c-0.555-3.265-0.711-6.772-0.733-10.282c-0.003-1.759,0.036-3.529,0.095-5.3c0.049-1.754,0.169-3.581,0.276-5.249
				l-7.708-0.76c-0.223,1.993-0.297,3.837-0.371,5.756c-0.053,1.903-0.054,3.809,0.028,5.724c0.17,3.831,0.544,7.69,1.543,11.617
				l0.09,0.367l0.045,0.184c0.043,0.159,0.091,0.317,0.144,0.472c0.215,0.608,0.528,1.154,0.854,1.565
				c0.664,0.848,1.337,1.322,1.952,1.706c1.235,0.726,2.313,1.067,3.359,1.364c2.08,0.571,4.03,0.782,5.964,0.958
				c3.867,0.288,7.6,0.194,11.398-0.177l0.023-3.836C381.562,254.624,377.943,254.067,374.532,253.327z"/>
			<g>
				<g>
					<path style="fill:#407BFF;" d="M357.467,224.824c-1.289,2.369,0.013,12.827,0.013,12.827l12.207,1.557
						c0,0,0.787-10.436-1.749-12.858C365.298,223.827,358.938,222.12,357.467,224.824z"/>
				</g>
				<g style="opacity:0.7;">
					<path style="fill:#FFFFFF;" d="M357.467,224.824c-1.289,2.369,0.013,12.827,0.013,12.827l12.207,1.557
						c0,0,0.787-10.436-1.749-12.858C365.298,223.827,358.938,222.12,357.467,224.824z"/>
				</g>
			</g>
			<g>
				<path style="fill:#FFB573;" d="M382.572,255.542l6.105-3.109l-1.466,6.28c0,0-3.92,1.101-5.747-0.799L382.572,255.542z"/>
				<polygon style="fill:#FFB573;" points="393.909,253.456 392.397,258.647 387.211,258.713 388.677,252.433 				"/>
			</g>
		</g>
		<g>
			<path style="fill:#407BFF;" d="M386.063,221.863c1.628,2.144,6.511,9.443,6.879,20.262c0.008,0.226,0.329,0.257,0.376,0.036
				l0.9-4.214c0.017-0.08,0.026-0.157,0.029-0.238c0.028-0.957-0.008-7.16-5.017-15.92c-0.055-0.097-0.155-0.164-0.266-0.177
				l-2.579-0.304C386.077,221.271,385.877,221.617,386.063,221.863z"/>
			<path style="opacity:0.5;" d="M386.063,221.863c1.628,2.144,6.511,9.443,6.879,20.262c0.008,0.226,0.329,0.257,0.376,0.036
				l0.9-4.214c0.017-0.08,0.026-0.157,0.029-0.238c0.028-0.957-0.008-7.16-5.017-15.92c-0.055-0.097-0.155-0.164-0.266-0.177
				l-2.579-0.304C386.077,221.271,385.877,221.617,386.063,221.863z"/>
		</g>
	</g>
</g>
<g id="Character_2">
	<g>
		<g>
			<path style="fill:#263238;" d="M224.032,239.983c1.088-9.837,1.581-15.052-2.054-20.674c-3.635-5.622-4.558-37.888-28.051-32.567
				c-5.138,1.164-12.464,2.212-9.533,18.794c2.931,16.582-6.491,14.014-1.024,22.566c5.467,8.552-9.023,18.382-1.741,27.736
				c7.282,9.353-6.078,15.937-1.237,20.584c0,0,2.214-1.068,5.742-2.223c-0.475-0.832-0.775-2.295,0.164-4.748
				c1.743-4.55,4.647-10.064,1.162-15.246c0,0,4.739,1.595,2.563,12.051c-0.712,3.421-0.66,5.552-0.271,6.877
				c1.709-0.447,3.587-0.857,5.575-1.171c-0.548-0.968-0.963-2.199-0.864-3.655c0.258-3.794,1.903-5.35,1.71-8.396
				c0,0,1.743,4.409,0.871,7.119c-0.433,1.347-0.373,3.148,0.576,4.619c4.937-0.553,10.385-0.411,15.564,1.298
				c15.228,5.023,19.51-8.12,19.51-8.12S222.943,249.82,224.032,239.983z"/>
			<path style="fill:#B55B52;" d="M223.643,230.44l-0.084,0.564l-0.084,0.752c-0.051,0.514-0.071,1.041-0.081,1.569
				c-0.022,1.057,0.056,2.117,0.194,3.159c0.306,2.082,0.925,4.084,1.901,5.931c0.484,0.926,1.068,1.804,1.72,2.648
				c0.318,0.429,0.677,0.831,1.036,1.237l0.565,0.591l0.501,0.563c0.641,0.747,1.287,1.326,1.794,1.727
				c0.257,0.19,0.478,0.358,0.712,0.478c0.12,0.069,0.243,0.114,0.381,0.159l0.205,0.054c0.033,0.01,0.067,0.02,0.096,0.032
				c0.013,0.007,0.028,0.013,0.035,0.024c-0.001,0.021,0.038-0.001-0.035,0.093c0.812-0.853,2.163-0.886,3.016-0.074
				c0.853,0.813,0.886,2.163,0.074,3.016l-0.37,0.437c-0.1,0.113-0.2,0.216-0.302,0.316c-0.206,0.194-0.423,0.366-0.65,0.527
				c-0.454,0.318-0.957,0.561-1.479,0.747c-1.051,0.356-2.158,0.428-3.167,0.314c-2.033-0.234-3.663-1.058-5.048-1.935
				c-0.347-0.227-0.679-0.462-0.986-0.706l-0.858-0.751c-0.556-0.522-1.112-1.051-1.628-1.625c-1.042-1.136-1.98-2.388-2.802-3.719
				c-1.645-2.665-2.744-5.679-3.255-8.746c-0.259-1.535-0.371-3.085-0.348-4.635c0.01-0.776,0.062-1.551,0.147-2.335
				c0.044-0.393,0.099-0.785,0.169-1.187l0.114-0.614l0.069-0.326l0.1-0.416c0.55-2.306,2.865-3.729,5.171-3.179
				c2.178,0.52,3.569,2.614,3.253,4.788L223.643,230.44z"/>
			<path style="fill:#B55B52;" d="M239.117,248.277l-0.291,1.831c-0.109,0.688-0.545,1.282-1.169,1.592l-2.916,1.451
				c-1.166,0.58-2.54,0.56-3.689-0.054l-0.711-0.38c0.275-3.069,2.833-6.183,2.833-6.183l0.631-0.969
				c0.562-0.862,1.643-1.117,2.484-0.585l1.935,1.225C238.893,246.628,239.248,247.452,239.117,248.277z"/>
			<path style="fill:#407BFF;" d="M217.151,222.26c5.851,0.444,8.648,4.673,11.413,14.325c-2.078,3.265-10.423,5.705-10.423,5.705
				S212.68,228.01,217.151,222.26z"/>
			<path style="opacity:0.7;fill:#FFFFFF;" d="M217.151,222.26c5.851,0.444,8.648,4.673,11.413,14.325
				c-2.078,3.265-10.423,5.705-10.423,5.705S212.68,228.01,217.151,222.26z"/>
			<g>
				<path style="fill:#263238;" d="M262.048,406.487c-5.085,1.372-5.778,1.474-8.661,2.149c-2.47,0.572-2.973,1.036-4.951,1.523
					c-1.652,0.408-2.015-1.181-1.996-3.126c0.008-0.977-0.119-3.003-0.166-4.564l7.304-2.551c1.588,1.718,4.723,3.934,7.693,3.546
					C264.105,403.093,264.075,405.94,262.048,406.487z"/>
				<g>
					<path style="fill:#407BFF;" d="M210.726,274.403c-3.938,15.382-6.456,14.666,13.522,62.056
						c-4.685,23.85,21.731,65.652,21.731,65.652c2.544,0.101,6.99-0.582,7.995-1.595c-4.569-13.683-13.357-47.914-15.821-70.06
						c-2.346-21.087-6.14-48.475-8.258-64.624c-0.211-1.611-0.816-6.447-0.816-6.447l-17.45,4.608
						C211.631,263.992,211.374,271.872,210.726,274.403z"/>
				</g>
				<g style="opacity:0.3;">
					<path d="M210.726,274.403c-3.938,15.382-6.456,14.666,13.522,62.056c-4.685,23.85,21.731,65.652,21.731,65.652
						c2.544,0.101,6.99-0.582,7.995-1.595c-4.569-13.683-13.357-47.914-15.821-70.06c-2.346-21.087-6.14-48.475-8.258-64.624
						c-0.211-1.611-0.816-6.447-0.816-6.447l-17.45,4.608C211.631,263.992,211.374,271.872,210.726,274.403z"/>
				</g>
				<path style="opacity:0.2;" d="M209.336,297.121c1.768,6.884,5.5,16.787,12.368,33.267c3.195-27.087-2.661-44.283-2.661-44.283
					h-8.057L209.336,297.121z"/>
				<path style="fill:#407BFF;" d="M252.702,394.545c0.482,1.2,1.351,3.282,2.163,4.815c0.293,0.553,0.243,1.187-0.1,1.423
					c-2.863,1.975-7.861,2.572-9.464,2.717c-0.307,0.028-0.647-0.233-0.853-0.647l-2.214-4.433c-0.303-0.606-0.197-1.294,0.22-1.438
					l9.224-3.177C252.036,393.682,252.484,394.003,252.702,394.545z"/>
			</g>
			<g>
				<path style="fill:#263238;" d="M162.984,394.389c-2.503-4.531-3.54-8.626-4.384-11.417c-0.718-2.394-1.143-1.997-1.957-4.391
					c-0.539-1.586,0.944-3.085,2.458-3.022c1.18,0.049,2.666,0.326,4.11,0.131l3.762,5.336c-1.693,2.048-2.696,9.073-1.031,12.652
					C167.127,396.24,163.99,396.201,162.984,394.389z"/>
				<g>
					<path style="fill:#407BFF;" d="M220.045,278.87c0,0,0.696,45.834-2.449,61.48c-3.075,15.299-51.385,41.665-51.385,41.665
						c-1.08,0.366-3.167-5.253-2.983-6.484c14.53-14.149,28.459-37.628,39.409-40.871c-10.793-38.661-8.623-45.976-1.614-59.068
						c1.596-2.981,0.842-9.76,0.842-9.76l18.246-1.839L220.045,278.87z"/>
				</g>
				<g style="opacity:0.3;">
					<path d="M220.045,278.87c0,0,0.696,45.834-2.449,61.48c-3.075,15.299-51.385,41.665-51.385,41.665
						c-1.08,0.366-3.167-5.253-2.983-6.484c14.53-14.149,28.459-37.628,39.409-40.871c-10.793-38.661-8.623-45.976-1.614-59.068
						c1.596-2.981,0.842-9.76,0.842-9.76l18.246-1.839L220.045,278.87z"/>
				</g>
				<path style="fill:#407BFF;" d="M172.055,379.085c-1.123,0.793-3.121,2.213-4.576,3.294c-0.482,0.358-1.053,0.445-1.304,0.209
					c-1.882-1.772-3.602-5.473-4.142-6.705c-0.107-0.244,0.059-0.608,0.41-0.908l3.78-3.226c0.516-0.44,1.213-0.56,1.446-0.25
					l4.885,6.505C172.753,378.269,172.536,378.745,172.055,379.085z"/>
			</g>
			<path style="fill:#407BFF;" d="M226.024,231.984c0.522,2.747,1.2,4.794,1.861,11.444c0.666,5.612,1.152,11.162,1.794,20.434
				l-28.079,4.445c-0.688-7.999-3.036-16.868-10.896-33.867c-1.822-3.941,0.157-8.317,4.253-9.398c1.094-0.289,2.26-0.57,3.461-0.82
				c4.672-0.973,8.508-1.735,12.75-2.018c1.406-0.094,2.87-0.147,4.273-0.173C220.505,221.935,225.088,227.061,226.024,231.984z"/>
			<path style="fill:#B55B52;" d="M197.039,209.725c1.759,3.927,4.312,11.228,2.079,14.387c0,0,3.793-1.199,12.851,2.598
				c1.847-3.805-0.101-4.616-0.101-4.616c-4.829-0.355-5.501-3.728-5.447-7.004L197.039,209.725z"/>
			<path style="fill:#FFFFFF;" d="M210.073,225.957c-2.656,0.817-2.857,5.056-2.857,5.056s-7.257-3.583-9.841-6.511
				c0.888-0.661,2.144-1.891,2.144-1.891S208.238,224.64,210.073,225.957z"/>
			<path style="fill:#FFFFFF;" d="M212.586,225.111c0,0,2.448,0.261,3.82,3.429c-0.326-6.082-3.281-6.658-3.281-6.658
				s-0.949-0.473-2.513,0.034C212.947,222.712,212.586,225.111,212.586,225.111z"/>
			<path style="opacity:0.2;" d="M200.865,211.914l5.553,3.173c-0.016,0.776,0.014,1.555,0.134,2.299
				c-1.807,0.027-4.654-1.489-5.266-3.268C200.981,213.231,200.815,212.358,200.865,211.914z"/>
			<path style="fill:#B55B52;" d="M192.593,202.091c2.254,6.317,3.073,9.031,7.282,11.565c6.332,3.812,13.616,0.112,13.299-6.641
				c-0.285-6.079-3.924-15.387-10.973-16.475C195.257,189.469,190.339,195.775,192.593,202.091z"/>
			<path style="fill:#A02724;" d="M206.357,201.481c0,0,1.621,2.105,2.962,2.99c-0.499,0.829-1.79,0.807-1.79,0.807L206.357,201.481
				z"/>
			<path style="fill:#263238;" d="M205.621,208.448c0.291-0.029,0.595-0.084,0.911-0.174c0.085-0.024,0.13-0.113,0.099-0.2
				c-0.031-0.085-0.123-0.136-0.211-0.112c-2.311,0.656-3.977-0.665-3.994-0.678c-0.072-0.059-0.176-0.052-0.23,0.015
				c-0.055,0.067-0.04,0.17,0.032,0.228C202.292,207.58,203.633,208.644,205.621,208.448z"/>
			<g>
				<path style="fill:#263238;" d="M201.584,202.252c0.19,0.53,0.624,0.881,0.969,0.783c0.344-0.098,0.469-0.606,0.279-1.137
					c-0.191-0.53-0.624-0.881-0.969-0.784C201.519,201.212,201.394,201.721,201.584,202.252z"/>
				<path style="fill:#263238;" d="M208.234,200.146c0.19,0.53,0.624,0.881,0.969,0.783c0.345-0.097,0.469-0.606,0.279-1.137
					c-0.19-0.53-0.624-0.881-0.969-0.784C208.169,199.107,208.044,199.616,208.234,200.146z"/>
				<path style="fill:#263238;" d="M208.372,199.082l1.134-0.726C209.506,198.356,209.214,199.535,208.372,199.082z"/>
				<path style="fill:#263238;" d="M199.678,199.424c0.078-0.036,0.139-0.102,0.164-0.188c0.389-1.347,1.554-1.659,1.567-1.663
					c0.173-0.046,0.271-0.219,0.215-0.389c-0.057-0.17-0.245-0.271-0.421-0.226c-0.061,0.016-1.524,0.406-2.006,2.078
					c-0.048,0.167,0.057,0.347,0.236,0.402C199.518,199.465,199.606,199.457,199.678,199.424z"/>
				<path style="fill:#263238;" d="M209.764,196.613c0.081-0.005,0.158-0.039,0.214-0.102c0.114-0.131,0.091-0.336-0.05-0.457
					c-1.418-1.219-2.868-0.877-2.93-0.861c-0.173,0.043-0.267,0.218-0.211,0.392c0.056,0.173,0.242,0.279,0.414,0.237
					c0.057-0.014,1.186-0.264,2.313,0.706C209.588,196.59,209.679,196.618,209.764,196.613z"/>
				<path style="fill:#263238;" d="M201.721,201.187l1.134-0.726C202.856,200.462,202.563,201.641,201.721,201.187z"/>
			</g>
			<path style="fill:#263238;" d="M199.851,191.42c0,0,1.86,1.093,2.711,2.973c0.623-0.276,1.313-0.454,2.067-0.511
				c-0.478-0.879-1.487-2.109-3.572-2.785c0,0,3.161,0.037,4.982,2.826c1.08,0.137,2.273,0.512,3.596,1.222
				c0,0-6.366-10.37-15.107-5.728c-8.741,4.642-1.936,17.129-1.936,17.129h1.743c0,0,4.028-0.179-0.406-8.33
				c0,0,3.063,1.096,3.235,3.444c0,0,1.13-4.369,4.195-6.568C201.27,194.238,200.934,192.937,199.851,191.42z"/>
			<path style="fill:#407BFF;" d="M192.444,205.537c0,0-10.411-8.88,1.884-17.317c0,0-9.391-0.189-9.197-8.611l11.133,6.718
				l7.213-10.203c0,0,4.017,5.518-5.094,11.23c0,0,4.562-1.936,8.068,2.816c0,0-5.494-3.426-10.662-0.268
				C186.293,195.706,192.444,205.537,192.444,205.537z"/>
			<path style="fill:#B55B52;" d="M191.619,208.171c1.124,1.15,2.605,1.673,3.838,1.667c1.855-0.011,2.152-1.921,1.109-3.514
				c-0.939-1.434-3.035-3.156-4.643-2.378C190.339,204.713,190.333,206.856,191.619,208.171z"/>
			<path style="fill:#263238;" d="M219.032,236.475l-5.533-8.197c0,0,3.796,3.614,4.57,1.807c0.651-1.52-3.9-2.72-5.365-3.063
				c-0.279-0.066-0.565,0.021-0.762,0.229c-1.277,1.35-5.821,6.486-2.973,8.385c3.292,2.195,2.969-7.544,2.969-7.544l1.236,10.577
				l1.346,0.258l-1.765-10.456l5.573,9.23L219.032,236.475z M217.392,229.795c-0.355,0.645-3.034-1.703-3.034-1.703
				S217.747,229.15,217.392,229.795z M209.292,234.603c-1.388-1.581,1.968-5.675,1.968-5.675S210.679,236.185,209.292,234.603z"/>
		</g>
		<g>
			<g>
				<path style="fill:#407BFF;" d="M252.219,236.66h-32.68v6.815h32.691C251.935,241.214,251.931,238.922,252.219,236.66z"/>
				<path style="opacity:0.7;fill:#FFFFFF;" d="M252.219,236.66h-32.68v6.815h32.691
					C251.935,241.214,251.931,238.922,252.219,236.66z"/>
				<g>
					<path style="fill:#407BFF;" d="M225.494,243.834h-10.271l-0.105-0.105c-0.989-0.989-1.534-2.305-1.534-3.704
						c0-1.399,0.545-2.715,1.534-3.704l0.105-0.105h10.271l-0.612,0.612c-0.854,0.854-1.324,1.989-1.324,3.197
						c0,1.207,0.47,2.343,1.324,3.197L225.494,243.834z"/>
				</g>
				<g style="opacity:0.3;">
					<path d="M225.494,243.834h-10.271l-0.105-0.105c-0.989-0.989-1.534-2.305-1.534-3.704c0-1.399,0.545-2.715,1.534-3.704
						l0.105-0.105h10.271l-0.612,0.612c-0.854,0.854-1.324,1.989-1.324,3.197c0,1.207,0.47,2.343,1.324,3.197L225.494,243.834z"/>
				</g>
				<g>
					<path style="fill:#407BFF;" d="M252.554,243.834h-27.741l-0.029-0.029c-0.958-0.959-1.559-2.237-1.607-3.592
						c-0.051-1.469,0.497-2.858,1.531-3.891l0.105-0.105h27.741c0.198,0,0.359,0.161,0.359,0.359l0,0
						c0,0.198-0.161,0.359-0.359,0.359h-27.441c-0.79,0.841-1.222,1.933-1.222,3.092c0,1.159,0.433,2.251,1.222,3.091h27.441
						c0.198,0,0.359,0.161,0.359,0.359l0,0C252.913,243.673,252.752,243.834,252.554,243.834z"/>
				</g>
			</g>
			<g>
				<path style="fill:#407BFF;" d="M250,222.904h-29.412v6.133h29.422C249.745,227.002,249.741,224.939,250,222.904z"/>
				<path style="opacity:0.8;fill:#FFFFFF;" d="M250,222.904h-29.412v6.133h29.422C249.745,227.002,249.741,224.939,250,222.904z"/>
				<g>
					<path style="fill:#263238;" d="M225.948,229.36h-9.244l-0.094-0.095c-0.891-0.89-1.381-2.074-1.381-3.333
						c0-1.259,0.49-2.443,1.381-3.333l0.094-0.095h9.244l-0.551,0.551c-0.768,0.768-1.192,1.79-1.192,2.877
						c0,1.087,0.423,2.109,1.192,2.877L225.948,229.36z"/>
				</g>
				<g>
					<path style="fill:#407BFF;" d="M250.302,229.36h-24.967l-0.026-0.026c-0.863-0.863-1.404-2.013-1.446-3.233
						c-0.046-1.322,0.448-2.572,1.378-3.502l0.094-0.095h24.967c0.178,0,0.323,0.145,0.323,0.323l0,0
						c0,0.178-0.145,0.323-0.323,0.323h-24.697c-0.711,0.757-1.1,1.74-1.1,2.782c0,1.043,0.39,2.026,1.1,2.782h24.697
						c0.178,0,0.323,0.145,0.323,0.323l0,0C250.625,229.215,250.48,229.36,250.302,229.36z"/>
				</g>
				<g style="opacity:0.4;">
					<path style="fill:#FFFFFF;" d="M250.302,229.36h-24.967l-0.026-0.026c-0.863-0.863-1.404-2.013-1.446-3.233
						c-0.046-1.322,0.448-2.572,1.378-3.502l0.094-0.095h24.967c0.178,0,0.323,0.145,0.323,0.323l0,0
						c0,0.178-0.145,0.323-0.323,0.323h-24.697c-0.711,0.757-1.1,1.74-1.1,2.782c0,1.043,0.39,2.026,1.1,2.782h24.697
						c0.178,0,0.323,0.145,0.323,0.323l0,0C250.625,229.215,250.48,229.36,250.302,229.36z"/>
				</g>
			</g>
			<g>
				<path style="fill:#407BFF;" d="M250,216.048h-29.412v6.133h29.422C249.745,220.146,249.741,218.083,250,216.048z"/>
				<path style="opacity:0.8;fill:#FFFFFF;" d="M250,216.048h-29.412v6.133h29.422C249.745,220.146,249.741,218.083,250,216.048z"/>
				<g>
					<path style="fill:#407BFF;" d="M225.948,222.504h-9.244l-0.094-0.095c-0.891-0.89-1.381-2.074-1.381-3.333
						s0.49-2.443,1.381-3.333l0.094-0.095h9.244l-0.551,0.551c-0.768,0.768-1.192,1.79-1.192,2.877c0,1.087,0.423,2.108,1.192,2.877
						L225.948,222.504z"/>
				</g>
				<g style="opacity:0.4;">
					<path style="fill:#FFFFFF;" d="M225.948,222.504h-9.244l-0.094-0.095c-0.891-0.89-1.381-2.074-1.381-3.333
						s0.49-2.443,1.381-3.333l0.094-0.095h9.244l-0.551,0.551c-0.768,0.768-1.192,1.79-1.192,2.877c0,1.087,0.423,2.108,1.192,2.877
						L225.948,222.504z"/>
				</g>
				<g>
					<path style="fill:#407BFF;" d="M250.302,222.504h-24.967l-0.026-0.027c-0.863-0.863-1.404-2.013-1.446-3.233
						c-0.046-1.322,0.448-2.572,1.378-3.502l0.094-0.095h24.967c0.178,0,0.323,0.145,0.323,0.323l0,0
						c0,0.178-0.145,0.323-0.323,0.323h-24.697c-0.711,0.757-1.1,1.74-1.1,2.782s0.39,2.026,1.1,2.782h24.697
						c0.178,0,0.323,0.145,0.323,0.323l0,0C250.625,222.359,250.48,222.504,250.302,222.504z"/>
				</g>
				<g style="opacity:0.5;">
					<path style="fill:#FFFFFF;" d="M250.302,222.504h-24.967l-0.026-0.027c-0.863-0.863-1.404-2.013-1.446-3.233
						c-0.046-1.322,0.448-2.572,1.378-3.502l0.094-0.095h24.967c0.178,0,0.323,0.145,0.323,0.323l0,0
						c0,0.178-0.145,0.323-0.323,0.323h-24.697c-0.711,0.757-1.1,1.74-1.1,2.782s0.39,2.026,1.1,2.782h24.697
						c0.178,0,0.323,0.145,0.323,0.323l0,0C250.625,222.359,250.48,222.504,250.302,222.504z"/>
				</g>
			</g>
			<g>
				<path style="fill:#407BFF;" d="M250,244.275h-29.412v6.133h29.422C249.745,248.373,249.741,246.31,250,244.275z"/>
				<path style="opacity:0.8;fill:#FFFFFF;" d="M250,244.275h-29.412v6.133h29.422C249.745,248.373,249.741,246.31,250,244.275z"/>
				<g>
					<path style="fill:#263238;" d="M225.948,250.731h-9.244l-0.094-0.095c-0.891-0.89-1.381-2.074-1.381-3.333
						s0.49-2.443,1.381-3.333l0.094-0.095h9.244l-0.551,0.551c-0.768,0.768-1.192,1.79-1.192,2.877c0,1.087,0.423,2.108,1.192,2.877
						L225.948,250.731z"/>
				</g>
				<g>
					<path style="fill:#407BFF;" d="M250.302,250.731h-24.967l-0.026-0.027c-0.863-0.863-1.404-2.013-1.446-3.233
						c-0.046-1.322,0.448-2.572,1.378-3.502l0.094-0.095h24.967c0.178,0,0.323,0.145,0.323,0.323l0,0
						c0,0.178-0.145,0.323-0.323,0.323h-24.697c-0.711,0.757-1.1,1.74-1.1,2.782s0.39,2.026,1.1,2.782h24.697
						c0.178,0,0.323,0.145,0.323,0.323l0,0C250.625,250.586,250.48,250.731,250.302,250.731z"/>
				</g>
			</g>
			<g>
				<path style="fill:#407BFF;" d="M250,229.76h-29.412v6.133h29.422C249.745,233.858,249.741,231.795,250,229.76z"/>
				<path style="opacity:0.7;fill:#FFFFFF;" d="M250,229.76h-29.412v6.133h29.422C249.745,233.858,249.741,231.795,250,229.76z"/>
				<g>
					<path style="fill:#407BFF;" d="M225.948,236.216h-9.244l-0.094-0.095c-0.891-0.89-1.381-2.074-1.381-3.333
						c0-1.259,0.49-2.443,1.381-3.333l0.094-0.095h9.244l-0.551,0.551c-0.768,0.769-1.192,1.79-1.192,2.877
						c0,1.087,0.423,2.109,1.192,2.877L225.948,236.216z"/>
				</g>
				<g style="opacity:0.6;">
					<path style="fill:#FFFFFF;" d="M225.948,236.216h-9.244l-0.094-0.095c-0.891-0.89-1.381-2.074-1.381-3.333
						c0-1.259,0.49-2.443,1.381-3.333l0.094-0.095h9.244l-0.551,0.551c-0.768,0.769-1.192,1.79-1.192,2.877
						c0,1.087,0.423,2.109,1.192,2.877L225.948,236.216z"/>
				</g>
				<g>
					<path style="fill:#407BFF;" d="M250.302,236.216h-24.967l-0.026-0.026c-0.863-0.863-1.404-2.013-1.446-3.233
						c-0.046-1.322,0.448-2.572,1.378-3.502l0.094-0.095h24.967c0.178,0,0.323,0.145,0.323,0.323l0,0
						c0,0.178-0.145,0.323-0.323,0.323h-24.697c-0.711,0.757-1.1,1.74-1.1,2.782c0,1.043,0.39,2.026,1.1,2.783h24.697
						c0.178,0,0.323,0.145,0.323,0.323l0,0C250.625,236.071,250.48,236.216,250.302,236.216z"/>
				</g>
				<g style="opacity:0.3;">
					<path style="fill:#FFFFFF;" d="M250.302,236.216h-24.967l-0.026-0.026c-0.863-0.863-1.404-2.013-1.446-3.233
						c-0.046-1.322,0.448-2.572,1.378-3.502l0.094-0.095h24.967c0.178,0,0.323,0.145,0.323,0.323l0,0
						c0,0.178-0.145,0.323-0.323,0.323h-24.697c-0.711,0.757-1.1,1.74-1.1,2.782c0,1.043,0.39,2.026,1.1,2.783h24.697
						c0.178,0,0.323,0.145,0.323,0.323l0,0C250.625,236.071,250.48,236.216,250.302,236.216z"/>
				</g>
			</g>
		</g>
		<g>
			<path style="fill:#B55B52;" d="M229.77,244.554l-2.071-0.46c-0.779-0.173-1.593,0.041-2.186,0.574l-2.771,2.493
				c-1.108,0.997-1.665,2.468-1.494,3.949l0.106,0.917c3.382,0.998,7.772-0.415,7.772-0.415l1.296-0.264
				c1.154-0.236,1.88-1.279,1.668-2.397l-0.49-2.575C231.432,245.486,230.703,244.761,229.77,244.554z"/>
			<path style="fill:#B55B52;" d="M226.179,248.087c-0.632-1.003-1.958-1.305-2.961-0.673l-0.047,0.029
				c-1.642,1.034-3.329,2.12-5.019,3.11c-1.684,1.01-3.373,1.989-5.065,2.871c-1.678,0.891-3.397,1.687-4.98,2.229
				c-0.666,0.229-1.314,0.386-1.814,0.443c-0.725-1.158-1.419-2.354-2.059-3.61c-0.77-1.573-1.505-3.181-2.17-4.842
				c-0.655-1.663-1.282-3.348-1.855-5.057c-0.29-0.853-0.57-1.71-0.828-2.57c-0.253-0.843-0.522-1.758-0.73-2.504l-0.038-0.138
				c-0.618-2.204-2.866-3.552-5.118-3.03c-2.317,0.537-3.76,2.851-3.223,5.167c0.255,1.102,0.498,2.023,0.8,3.002
				c0.288,0.966,0.596,1.921,0.918,2.872c0.658,1.897,1.395,3.772,2.23,5.616c0.823,1.848,1.771,3.663,2.81,5.443
				c1.041,1.783,2.246,3.508,3.573,5.176l0.112,0.142c0.133,0.165,0.283,0.319,0.452,0.46c1.056,0.884,2.337,1.314,3.337,1.428
				c1.027,0.131,1.873,0.046,2.613-0.087c1.476-0.278,2.628-0.741,3.708-1.23c2.142-0.988,3.938-2.181,5.681-3.405
				c1.724-1.244,3.35-2.551,4.912-3.918c1.553-1.391,3.051-2.769,4.503-4.307C226.579,250.01,226.712,248.933,226.179,248.087z"/>
			<g>
				<path style="fill:#407BFF;" d="M192.786,226.045c-4.792,3.387-5.019,8.452-2.431,18.153c3.46,1.734,11.873-0.461,11.873-0.461
					S199.576,228.68,192.786,226.045z"/>
				<path style="opacity:0.7;fill:#FFFFFF;" d="M192.786,226.045c-4.792,3.387-5.019,8.452-2.431,18.153
					c3.46,1.734,11.873-0.461,11.873-0.461S199.576,228.68,192.786,226.045z"/>
			</g>
		</g>
	</g>
</g>
<g id="Character_1">
	<g>
		<g>
			<path style="fill:#FFB573;" d="M173.613,217.46c-1.746,4.288-3.55,8.585-5.366,12.849c-1.794,4.26-3.662,8.549-5.298,12.724
				l-0.109,0.277c-0.02,0.034-0.035,0.087-0.053,0.139c-0.037,0.105-0.066,0.246-0.096,0.397c-0.054,0.312-0.076,0.702-0.081,1.125
				c-0.004,0.851,0.112,1.835,0.292,2.836c0.378,2.013,0.96,4.143,1.669,6.25c0.692,2.119,1.494,4.241,2.337,6.36
				c0.824,2.12,1.751,4.253,2.647,6.317l-3.738,2.208c-2.818-3.936-5.276-7.992-7.381-12.418c-1.025-2.222-1.998-4.508-2.698-7.037
				c-0.347-1.27-0.646-2.592-0.788-4.072c-0.07-0.741-0.092-1.522-0.026-2.371c0.038-0.428,0.09-0.866,0.186-1.329
				c0.048-0.232,0.098-0.463,0.171-0.706l0.166-0.553c0.718-2.333,1.48-4.567,2.286-6.789c0.792-2.225,1.615-4.428,2.462-6.618
				c1.688-4.386,3.461-8.71,5.35-13.017L173.613,217.46z"/>
			<path style="fill:#FFB573;" d="M169.068,265.658l3.502,2.919c1.838,1.532,1.991,4.302,0.333,6.027l0,0
				c-2.206,2.296-6.069,1.334-6.945-1.727c-0.439-1.534-0.777-3.167-0.837-4.681L169.068,265.658z"/>
			<path style="fill:#263238;" d="M169.75,266.193c-1.752,0.603-3.654,1.789-4.546,2.392c-0.175,0.118-0.413,0.093-0.564-0.066
				c-0.995-1.048-2.148-2.804-2.304-3.576c-0.03-0.148,0.031-0.293,0.147-0.385c1.411-1.119,5.054-2.962,5.819-2.374
				c0.62,0.476,1.399,2.574,1.712,3.472C170.093,265.883,169.974,266.116,169.75,266.193z"/>
		</g>
		<g>
			<g>
				<g>
					<path style="fill:#407BFF;" d="M119.968,227.302c-7.369,3.834-10.279,11.432-10.506,19.357
						c-0.042,1.482,2.263,1.78,2.306,0.284c0.2-7.011,2.501-14.063,9.118-17.506C122.205,228.751,121.299,226.609,119.968,227.302
						L119.968,227.302z"/>
				</g>
				<g style="opacity:0.2;">
					<path d="M119.968,227.302c-7.369,3.834-10.279,11.432-10.506,19.357c-0.042,1.482,2.263,1.78,2.306,0.284
						c0.2-7.011,2.501-14.063,9.118-17.506C122.205,228.751,121.299,226.609,119.968,227.302L119.968,227.302z"/>
				</g>
			</g>
			<g>
				<path style="fill:#407BFF;" d="M138.712,202.116l17.605,2.167c7.299,0.898,12.769,7.183,12.574,14.534
					c-0.001,0.034-0.002,0.068-0.003,0.101c-0.332,9.98-2.92,29.85-4.879,39.641c-0.079,0.392-0.188,0.871-0.321,1.41
					c-1.716,6.983-8.405,11.568-15.542,10.689l-24.625-3.031c-6.005-0.739-10.982-5.176-12.165-11.11
					c-0.049-0.248-0.086-0.475-0.106-0.677c-0.526-5.126,0.386-15.765,2.518-20.456c1.187-2.613,6.473-5.938,7.66-8.551
					c1.835-4.039-0.018-13.752,2.168-17.612c0.725-1.281,2.943-3.059,5.098-4.588C131.599,202.572,135.174,201.68,138.712,202.116z"
					/>
				<path style="opacity:0.5;" d="M138.712,202.116l17.605,2.167c7.299,0.898,12.769,7.183,12.574,14.534
					c-0.001,0.034-0.002,0.068-0.003,0.101c-0.332,9.98-2.92,29.85-4.879,39.641c-0.079,0.392-0.188,0.871-0.321,1.41
					c-1.716,6.983-8.405,11.568-15.542,10.689l-24.625-3.031c-6.005-0.739-10.982-5.176-12.165-11.11
					c-0.049-0.248-0.086-0.475-0.106-0.677c-0.526-5.126,0.386-15.765,2.518-20.456c1.187-2.613,6.473-5.938,7.66-8.551
					c1.835-4.039-0.018-13.752,2.168-17.612c0.725-1.281,2.943-3.059,5.098-4.588C131.599,202.572,135.174,201.68,138.712,202.116z"
					/>
				<path style="fill:#407BFF;" d="M131.344,204.277c-0.13-0.25-0.391-0.513-0.723-0.779c-0.667,0.33-1.316,0.701-1.929,1.136
					c-2.155,1.529-4.373,3.307-5.098,4.588c-2.186,3.861-0.333,13.573-2.168,17.612c-1.187,2.613-6.472,5.938-7.66,8.551
					c-2.131,4.691-3.043,15.33-2.517,20.456c0.021,0.201,0.057,0.428,0.106,0.677c1.029,5.162,4.93,9.189,9.881,10.636
					c0.582-0.203,1.07-0.437,1.409-0.707C124.974,264.594,133.563,208.532,131.344,204.277z"/>
				<path style="opacity:0.2;" d="M131.344,204.277c-0.13-0.25-0.391-0.513-0.723-0.779c-0.667,0.33-1.316,0.701-1.929,1.136
					c-2.155,1.529-4.373,3.307-5.098,4.588c-2.186,3.861-0.333,13.573-2.168,17.612c-1.187,2.613-6.472,5.938-7.66,8.551
					c-2.131,4.691-3.043,15.33-2.517,20.456c0.021,0.201,0.057,0.428,0.106,0.677c1.029,5.162,4.93,9.189,9.881,10.636
					c0.582-0.203,1.07-0.437,1.409-0.707C124.974,264.594,133.563,208.532,131.344,204.277z"/>
			</g>
			<path style="opacity:0.2;" d="M111.83,243.02c-0.687,4.6-0.898,9.719-0.58,12.821c0.021,0.201,0.057,0.428,0.106,0.677
				c1.029,5.162,4.93,9.189,9.881,10.636c0.582-0.203,1.07-0.437,1.409-0.707c0.926-0.737,2.842-10.051,4.675-21.269
				C120.536,246.927,114.104,244.176,111.83,243.02z"/>
		</g>
		<path style="fill:#407BFF;" d="M174.377,220.387c2.781-8.334-1.531-14.738-8.02-11.689c-5.837,2.742-13.069,32.643-12.072,37.541
			c1.517,7.455,7.522,17.465,7.522,17.465l6.129-2.943c0,0-5.099-11.585-4.583-16.039
			C163.869,240.268,171.736,228.3,174.377,220.387z"/>
		<path style="opacity:0.4;fill:#FFFFFF;" d="M174.377,220.387c2.781-8.334-1.531-14.738-8.02-11.689
			c-5.837,2.742-13.069,32.643-12.072,37.541c1.517,7.455,7.522,17.465,7.522,17.465l6.129-2.943c0,0-5.099-11.585-4.583-16.039
			C163.869,240.268,171.736,228.3,174.377,220.387z"/>
		<path style="fill:#407BFF;" d="M169.727,207.943c0,0,5.447,21.179-6.631,57.922c-10.791-1.31-30.562-3.711-35.813-4.349
			c0.421-5.527,7.132-31.926,4.975-58.473c0,0,6.288-0.487,12.172-0.058c4.603,0.335,11.245,0.994,15.224,1.849
			C164.899,205.962,169.727,207.943,169.727,207.943z"/>
		<path style="fill:#FFB573;" d="M148.02,186.026c0.366,5.015,0.234,14.106-3.59,16.959c2.677,1.542,5.178,3.376,7.518,5.476
			c2.741,2.46,7.126,0.944,7.633-2.704c0.043-0.311,0.068-0.619,0.073-0.923c-5.304-1.967-4.671-6.003-3.257-9.693L148.02,186.026z"
			/>
		<path style="opacity:0.2;" d="M151.435,189.744l4.958,5.391c-0.338,0.873-0.626,1.765-0.797,2.645
			c-2.05-0.555-4.639-3.194-4.595-5.406C151.023,191.272,151.195,190.23,151.435,189.744z"/>
		<path style="fill:#FFB573;" d="M148.333,178.583c-0.398,6.682-0.971,10.573,1.966,14.384c4.417,5.733,12.973,3.689,15.36-2.739
			c2.148-5.786,2.438-15.742-3.734-19.17C155.844,167.681,148.731,171.901,148.333,178.583z"/>
		<path style="fill:#263238;" d="M158.168,181.659c-0.066,0.54,0.167,1.013,0.521,1.055c0.353,0.043,0.692-0.36,0.758-0.9
			c0.066-0.54-0.168-1.013-0.521-1.055C158.573,180.716,158.233,181.119,158.168,181.659z"/>
		<path style="fill:#263238;" d="M164.272,182.4c-0.066,0.54,0.167,1.012,0.52,1.055c0.353,0.043,0.692-0.36,0.758-0.9
			c0.066-0.54-0.167-1.013-0.521-1.055C164.677,181.457,164.338,181.86,164.272,182.4z"/>
		<path style="fill:#ED893E;" d="M162.299,182.433c0,0,0.85,3.265,2.019,4.932c-1.064,0.776-2.639,0.171-2.639,0.171
			L162.299,182.433z"/>
		<path style="fill:#263238;" d="M159.944,188.838c0.079,0,0.148-0.06,0.158-0.141c0.011-0.088-0.052-0.167-0.139-0.178
			c-2.371-0.288-3.276-2.078-3.285-2.096c-0.039-0.079-0.134-0.112-0.214-0.073c-0.079,0.039-0.112,0.135-0.073,0.214
			c0.039,0.08,0.992,1.964,3.533,2.272C159.931,188.837,159.938,188.838,159.944,188.838z"/>
		<path style="fill:#263238;" d="M156.606,179.469c0.084,0,0.167-0.033,0.23-0.097c0.98-1.014,2.114-0.821,2.162-0.812
			c0.172,0.032,0.34-0.082,0.372-0.255c0.033-0.173-0.08-0.339-0.252-0.372c-0.062-0.012-1.513-0.275-2.741,0.995
			c-0.123,0.127-0.119,0.329,0.008,0.452C156.446,179.439,156.526,179.469,156.606,179.469z"/>
		<path style="fill:#263238;" d="M167.238,180.63c0.034,0,0.069-0.006,0.104-0.017c0.167-0.058,0.256-0.239,0.198-0.406
			c-0.575-1.671-2.001-2.047-2.062-2.063c-0.172-0.042-0.345,0.061-0.388,0.232c-0.043,0.171,0.061,0.344,0.231,0.387
			c0.051,0.014,1.157,0.32,1.615,1.651C166.981,180.547,167.105,180.63,167.238,180.63z"/>
		<g>
			<path style="fill:#FFB573;" d="M162.328,265.771c0,0,13.52,42.426,15.015,62.954c1.555,21.351,6.753,75.331,6.753,75.331
				l-5.234,1.58c0,0-17.796-49.709-18.491-70.715c-0.455-13.744-25.081-72.433-25.081-72.433L162.328,265.771z"/>
			<path style="fill:#263238;" d="M184.582,399.635l-6.894,3.145c-0.251,0.115-0.389,0.388-0.331,0.658l1.276,6.007
				c0.132,0.623,0.821,0.956,1.396,0.681c2.388-1.139,3.493-1.814,6.525-3.197c1.865-0.851,8.505-3.646,11.08-4.821
				c2.519-1.149,1.75-3.875,0.59-3.625c-5.2,1.123-10.34,1.745-12.475,1.074C185.365,399.437,184.949,399.468,184.582,399.635z"/>
			<path style="fill:#407BFF;" d="M188.182,398.153c-0.019-0.048-0.041-0.095-0.067-0.143c-0.132-0.247-0.324-0.306-0.462-0.313
				c-0.836-0.039-2.186,1.939-2.448,2.336c-0.042,0.064-0.042,0.146,0.001,0.21c0.042,0.064,0.119,0.095,0.194,0.08
				c0.868-0.168,2.381-0.571,2.766-1.38C188.286,398.692,188.291,398.427,188.182,398.153z M185.794,399.849
				c0.61-0.846,1.449-1.792,1.843-1.774c0.043,0.002,0.093,0.017,0.145,0.113c0.114,0.212,0.129,0.409,0.042,0.59
				C187.625,399.196,186.88,399.585,185.794,399.849z"/>
			<path style="fill:#407BFF;" d="M186.241,397.193c-0.021-0.052-0.046-0.099-0.075-0.141c-0.085-0.12-0.285-0.303-0.67-0.181
				c-0.246,0.077-0.432,0.24-0.552,0.484c-0.452,0.92,0.213,2.769,0.241,2.848c0.024,0.069,0.081,0.112,0.151,0.123
				c0.069,0.01,0.138-0.018,0.179-0.074C185.966,399.653,186.534,397.933,186.241,397.193z M185.417,399.682
				c-0.183-0.634-0.386-1.645-0.132-2.16c0.074-0.149,0.18-0.244,0.325-0.29c0.179-0.056,0.224,0.008,0.246,0.039
				C186.098,397.608,185.803,398.918,185.417,399.682z"/>
			<path style="fill:#263238;" d="M134.879,262.626l28.217,3.238c0,0,12.778,43.475,15.101,57.572
				c2.07,12.557,5.133,58.175,5.777,67.992c0.073,1.109-0.597,2.129-1.643,2.507l-5.544,2.004c-1.343,0.485-2.817-0.249-3.235-1.614
				c-2.926-9.556-13.198-43.731-13.859-54.662C158.923,326.907,134.879,262.626,134.879,262.626z"/>
			<path style="opacity:0.6;" d="M142.111,280.429c0.262,1.42,0.525,2.843,0.788,4.253c1.296,3.643,2.664,7.532,4.039,11.507
				c2.892-7.54,2.581-17.767,1.967-22.264C148.403,270.219,144.549,276.189,142.111,280.429z"/>
			<g>
				<polygon style="fill:#FFFFFF;" points="184.787,406.207 185.174,403.431 186.717,402.851 186.321,405.636 				"/>
				<polygon style="fill:#FFFFFF;" points="187.362,405.239 187.878,401.753 189.557,401.043 188.976,404.529 				"/>
			</g>
		</g>
		<g>
			<path style="fill:#FFB573;" d="M153.237,264.667c0,0-20.222,54.38-30.281,72.045c-10.709,18.807-55.355-15.887-55.355-15.887
				l4.012-4.198c0,0,26.156,11.391,36.506,10.543c10.179-19.033,19.163-65.656,19.163-65.656L153.237,264.667z"/>
			<path style="fill:#263238;" d="M153.893,264.747l-26.61-3.231c0,0-11.812,46.009-17.139,58.605
				c-2.859,6.76-13.367,5.989-31.277-1.164l-5.058,7.446c0,0,28.939,20.425,42.687,16.94
				C130.242,339.857,153.893,264.747,153.893,264.747z"/>
			<path style="fill:#263238;" d="M67.142,322.315l5.795-4.882c0.211-0.178,0.27-0.478,0.142-0.722l-2.844-5.444
				c-0.295-0.564-1.048-0.7-1.528-0.281c-1.994,1.739-2.877,2.686-5.425,4.833c-1.568,1.321-7.212,5.798-9.377,7.622
				c-2.117,1.784-0.644,4.203,0.406,3.65c4.707-2.479,9.491-4.46,11.727-4.388C66.44,322.716,66.833,322.575,67.142,322.315z"/>
			<path style="fill:#407BFF;" d="M64.072,324.71c0.031,0.041,0.065,0.081,0.103,0.12c0.193,0.202,0.394,0.208,0.529,0.178
				c0.816-0.188,1.585-2.455,1.73-2.908c0.023-0.073,0.001-0.152-0.057-0.202c-0.058-0.05-0.14-0.059-0.208-0.025
				c-0.791,0.395-2.14,1.19-2.294,2.073C63.827,324.219,63.893,324.475,64.072,324.71z M65.916,322.434
				c-0.36,0.979-0.913,2.115-1.298,2.203c-0.042,0.01-0.095,0.009-0.17-0.07c-0.167-0.174-0.234-0.359-0.2-0.557
				C64.328,323.556,64.942,322.981,65.916,322.434z"/>
			<path style="fill:#407BFF;" d="M66.2,325.113c0.034,0.045,0.071,0.083,0.11,0.116c0.114,0.093,0.356,0.215,0.694-0.005
				c0.216-0.141,0.351-0.348,0.401-0.615c0.189-1.008-0.949-2.61-0.998-2.678c-0.041-0.06-0.109-0.086-0.178-0.078
				c-0.069,0.009-0.128,0.055-0.153,0.119C65.804,322.67,65.718,324.479,66.2,325.113z M66.324,322.494
				c0.346,0.562,0.814,1.481,0.708,2.045c-0.031,0.164-0.108,0.283-0.235,0.367c-0.157,0.102-0.218,0.052-0.247,0.029
				C66.226,324.675,66.158,323.334,66.324,322.494z"/>
			<path style="fill:#407BFF;" d="M122.814,296.939c4.028-14.329,8.05-29.277,9.531-34.809l-1.553-0.189
				c-1.524,5.692-5.494,20.438-9.469,34.578l-0.437,1.556c-3.986,14.198-8.107,28.878-13.153,30.547
				c-9.624,3.179-24.257-3.414-30.807-6.809l-0.886,1.305c5.379,2.828,16.355,7.904,25.849,7.904c2.221,0,4.363-0.278,6.33-0.929
				c5.828-1.926,9.689-15.677,14.158-31.598L122.814,296.939z"/>
			<g>
				<polygon style="fill:#FFFFFF;" points="66.679,314.921 67.129,317.687 65.827,318.698 65.382,315.92 				"/>
				<polygon style="fill:#FFFFFF;" points="64.505,316.607 65.042,320.089 63.649,321.264 63.173,317.763 				"/>
			</g>
		</g>
		<g>
			<path style="fill:#263238;" d="M134.728,202.482c0,0,26.65,7.985,28.657,11.618l2.107-1.936c0,0-6.851-4.357-23.406-9.681
				C142.086,202.482,134.728,200.836,134.728,202.482z"/>
			<path style="fill:#263238;" d="M161.679,223.487c0,0-12.232,17.419-35.932,30.264c-1.639,0.888-2.867,2.385-3.422,4.165
				l-0.119,0.383c-0.275,0.882,0.616,1.68,1.458,1.3c5.557-2.5,21.376-11.049,40.504-33.981L161.679,223.487z"/>
		</g>
		<g>
			<path style="fill:#FFB573;" d="M135.946,209.753c2.757,3.103,5.621,6.268,8.489,9.299c1.43,1.527,2.891,3.013,4.353,4.452
				c1.457,1.437,2.966,2.81,4.426,3.982c0.366,0.293,0.722,0.555,1.071,0.806l0.501,0.333l0.224,0.131l0.111,0.067
				c0.035,0.021,0.09,0.054,0.064,0.041c-0.044-0.007-0.242-0.018-0.356,0.013c-0.122,0.035-0.102,0.089,0.042,0.045
				c0.29-0.067,0.904-0.505,1.465-1.076c0.58-0.572,1.177-1.28,1.74-2.046c1.137-1.536,2.196-3.28,3.214-5.068
				c0.499-0.9,1.008-1.809,1.494-2.732l1.411-2.771l4.13,1.339c-0.951,4.427-2.238,8.623-4.471,12.851
				c-0.577,1.051-1.212,2.11-2.035,3.163c-0.845,1.039-1.799,2.129-3.415,3.068c-0.803,0.455-1.82,0.868-3.016,0.972
				c-1.186,0.127-2.467-0.12-3.486-0.567c-0.78-0.348-1.324-0.653-1.91-0.994c-0.55-0.334-1.082-0.675-1.58-1.02
				c-1.996-1.377-3.715-2.846-5.404-4.328c-1.682-1.484-3.266-3.026-4.834-4.571c-3.113-3.129-6.039-6.309-8.894-9.702
				L135.946,209.753z"/>
			<path style="fill:#FFB573;" d="M164.104,217.801l-2.325-4.176c-1.149-2.064-0.227-4.669,1.965-5.551l0,0
				c2.964-1.192,6.146,1.18,5.836,4.359c-0.097,0.994-0.246,2.005-0.469,2.968c-0.205,0.886-0.93,1.559-1.82,1.743L164.104,217.801z
				"/>
			<path style="fill:#407BFF;" d="M126.721,208.872c1.548-6.741,9.326-9.382,13.513-1.718c5.433,9.943,14.727,20.27,14.727,20.27
				l7.366-9.623l6.567,2.653c0,0-4.992,20.008-15.659,16.91C142.57,234.266,125.143,215.747,126.721,208.872z"/>
			<path style="opacity:0.4;fill:#FFFFFF;" d="M126.721,208.872c1.548-6.741,9.326-9.382,13.513-1.718
				c5.433,9.943,14.727,20.27,14.727,20.27l7.366-9.623l6.567,2.653c0,0-4.992,20.008-15.659,16.91
				C142.57,234.266,125.143,215.747,126.721,208.872z"/>
		</g>
		<circle style="fill:#263238;" cx="167.315" cy="172.983" r="3.711"/>
		<circle style="fill:#263238;" cx="161.951" cy="168.4" r="3.711"/>
		<circle style="fill:#263238;" cx="155.096" cy="167.045" r="3.711"/>
		<circle style="fill:#263238;" cx="148.771" cy="169.979" r="3.711"/>
		<path style="fill:#263238;" d="M149.771,176.111c0,2.05-1.661,3.711-3.711,3.711c-2.05,0-3.711-1.661-3.711-3.711
			c0-2.05,1.661-3.711,3.711-3.711C148.11,172.399,149.771,174.061,149.771,176.111z"/>
		<path style="fill:#263238;" d="M148.667,184.576c-1.341,0.598-2.996-0.189-3.695-1.757c-0.699-1.568-0.178-3.324,1.163-3.922
			c1.341-0.598,2.995,0.188,3.695,1.757C150.529,182.222,150.009,183.978,148.667,184.576z"/>
		<path style="fill:#263238;" d="M146.06,180.63c0,0-1.026-9.957,6.422-12.65c7.448-2.693,14.044,4.131,14.044,4.131l0.525,2.582
			l-4.052,0.645l-6.712,0.772l-4.244,1.327l-4.293,4.71L146.06,180.63z"/>
		<g>
			<path style="fill:#407BFF;" d="M147.749,182.148c0,0,5.433-5.295,15.249-5.47c1.441-0.026,2.444,0.388,3.068,0.781
				c0.241,0.152,0.535-0.086,0.441-0.355l-1.184-3.365c-0.159-0.452-0.548-0.778-1.021-0.853c-2.072-0.329-8.098-0.644-15.779,4.652
				c-0.327,0.226-0.533,0.596-0.557,0.993L147.749,182.148z"/>
			<path style="fill:#FFFFFF;" d="M147.919,179.331l-0.058,0.957c3.541-2.196,12.114-6.873,18.056-4.862l-0.317-0.902
				C159.596,172.903,151.673,177.04,147.919,179.331z"/>
		</g>
		<path style="fill:#FFB573;" d="M144.449,185.531c0.756,1.639,2.198,2.776,3.598,3.267c2.105,0.738,3.302-1.11,2.837-3.173
			c-0.418-1.856-2.018-4.477-4.189-4.325C144.556,181.451,143.585,183.656,144.449,185.531z"/>
		<path style="fill:#263238;" d="M158.539,174.855c-0.583,1.564-1.957,2.496-3.069,2.081c-1.112-0.414-1.54-2.018-0.957-3.582
			c0.583-1.564,1.957-2.496,3.069-2.081C158.694,171.687,159.122,173.291,158.539,174.855z"/>
		<path style="fill:#263238;" d="M156.018,173.479c-0.583,1.564-1.957,2.496-3.069,2.081c-1.112-0.415-1.54-2.018-0.957-3.582
			c0.583-1.564,1.957-2.496,3.069-2.081C156.173,170.311,156.601,171.915,156.018,173.479z"/>
	</g>
</g>
</svg>
